<?xml version="1.0" encoding="UTF-8"?>
<svg width="570px" height="45px" viewBox="0 0 570 45" version="1.1" xmlns="http://www.w3.org/2000/svg" xmlns:xlink="http://www.w3.org/1999/xlink">
    <!-- Generator: Sketch 63.1 (92452) - https://sketch.com -->
    <title>电子商务用户行为分析系统</title>
    <desc>Created with Sketch.</desc>
    <g id="页面-1" stroke="none" stroke-width="1" fill="none" fill-rule="evenodd">
        <g id="P3-展示" transform="translate(-556.000000, -176.000000)" fill="#FFFFFF" fill-rule="nonzero">
            <path d="M571.92,211.544 C571.792,216.504 574.128,218.904 578.928,218.744 L578.928,218.744 L590.832,218.744 C595.12,218.872 597.2,216.888 597.072,212.792 L597.072,212.792 L597.072,210.584 L593.136,210.584 L593.136,212.216 C593.232,214.456 592.048,215.544 589.584,215.48 L589.584,215.48 L580.8,215.48 C578.112,215.608 576.832,214.2 576.96,211.256 L576.96,211.256 L576.96,207.848 L585.888,207.848 C590.656,207.944 592.992,205.56 592.896,200.696 L592.896,200.696 L592.896,181.208 L576.96,181.208 L576.96,176.408 L571.92,176.408 L571.92,181.208 L556.128,181.208 L556.128,207.848 L571.92,207.848 L571.92,211.544 Z M571.92,192.68 L560.88,192.68 L560.88,184.424 L571.92,184.424 L571.92,192.68 Z M588.048,192.68 L576.96,192.68 L576.96,184.424 L588.048,184.424 L588.048,192.68 Z M584.817365,204.586447 L584.592,204.584 L576.96,204.584 L576.96,195.896 L588.048,195.896 L588.048,201.176 C588.112,203.512 586.96,204.648 584.592,204.584 L584.817365,204.586447 Z M571.92,204.584 L560.88,204.584 L560.88,195.896 L571.92,195.896 L571.92,204.584 Z M620.495003,219.464867 C625.230413,219.431034 627.566745,216.982745 627.504,212.12 L627.504,199.544 L645.792,199.544 L645.792,196.04 L627.504,196.04 L627.504,192.248 C632.656,189.816 637.456,186.504 641.904,182.312 L641.904,182.312 L641.904,178.856 L606.24,178.856 L606.24,182.312 L634.08,182.312 C630.528,185.864 626.544,188.728 622.128,190.904 L622.128,190.904 L622.128,196.04 L602.16,196.04 L602.16,199.544 L622.128,199.544 L622.128,212.264 C622.192,214.792 620.976,216.024 618.48,215.96 L618.48,215.96 L614.928,215.96 L614.928,219.464 L620.495003,219.464867 Z M693.552,182.648 L693.552,179.384 L675.024,179.384 L675.024,176.456 L669.312,176.456 L669.312,179.384 L650.448,179.384 L650.448,182.648 L693.552,182.648 Z M657.792,219.896 L657.792,192.344 L685.872,192.344 L685.872,213.272 C685.904,215.128 684.976,216.04 683.088,216.008 L683.088,216.008 L680.688,216.008 L680.688,219.176 L684.816,219.176 C688.88,219.368 690.832,217.272 690.672,212.888 L690.672,212.888 L690.672,189.176 L681.696,189.176 C682.528,187.768 683.136,185.992 683.52,183.848 L683.52,183.848 L678.624,183.848 C678.336,185.832 677.792,187.608 676.992,189.176 L676.992,189.176 L666.96,189.176 C666.128,187.608 665.584,185.832 665.328,183.848 L665.328,183.848 L660.48,183.848 C660.832,185.96 661.424,187.736 662.256,189.176 L662.256,189.176 L653.04,189.176 L653.04,219.896 L657.792,219.896 Z M675.264,213.848 C679.008,213.976 680.816,212.12 680.688,208.28 L680.688,208.28 L680.688,201.512 C681.968,202.12 683.44,202.664 685.104,203.144 L685.104,203.144 L685.104,200.264 C681.712,198.76 679.328,196.536 677.952,193.592 L677.952,193.592 L673.344,193.592 C674.912,197.176 677.232,199.752 680.304,201.32 L680.304,201.32 L663.36,201.32 C666.432,199.816 668.752,197.24 670.32,193.592 L670.32,193.592 L665.712,193.592 C664.304,196.568 661.92,198.792 658.56,200.264 L658.56,200.264 L658.56,203.144 C660.544,202.568 662.096,201.992 663.216,201.416 L663.216,201.416 L663.216,213.848 L675.264,213.848 Z M674.207755,210.878612 L674.016,210.872 L667.344,210.872 L667.344,204.296 L676.608,204.296 L676.608,208.28 C676.704,210.104 675.84,210.968 674.016,210.872 L674.207755,210.878612 Z M698.304,198.872 C707.904,197.688 715.088,196.264 719.856,194.6 C724.752,196.296 732.016,197.688 741.648,198.776 L741.648,198.776 L741.648,195.896 C734.672,194.936 729.12,193.8 724.992,192.488 C729.312,190.376 733.36,187.224 737.136,183.032 L737.136,183.032 L737.136,179.624 L714.432,179.624 C715.2,178.664 715.936,177.592 716.64,176.408 L716.64,176.408 L711.072,176.408 C708.864,180.408 704.848,183.32 699.024,185.144 L699.024,185.144 L699.024,187.688 C701.744,187.144 704,186.536 705.792,185.864 C708.832,188.776 711.84,190.968 714.816,192.44 C710.496,193.88 704.992,195.08 698.304,196.04 L698.304,196.04 L698.304,198.872 Z M719.808,190.472 C716.832,189.128 713.92,187.32 711.072,185.048 L711.072,185.048 L707.712,185.048 C708.992,184.44 710.176,183.704 711.264,182.84 L711.264,182.84 L730.896,182.84 C727.44,186.136 723.744,188.68 719.808,190.472 Z M699.36,220.184 C711.552,217.688 717.936,212.6 718.512,204.92 L718.512,204.92 L731.568,204.92 L731.568,212.744 C731.632,214.856 730.624,215.88 728.544,215.816 L728.544,215.816 L724.224,215.816 L724.224,219.128 L730.464,219.128 C734.688,219.256 736.736,217.064 736.608,212.552 L736.608,212.552 L736.608,201.656 L718.848,201.656 L718.848,197.624 L713.76,197.624 L713.76,201.656 L701.04,201.656 L701.04,204.92 L713.472,204.92 C712.896,210.488 708.192,214.568 699.36,217.16 L699.36,217.16 L699.36,220.184 Z M746.496,220.232 C752.608,216.872 755.6,211.688 755.472,204.68 L755.472,204.68 L766.512,204.68 L766.512,219.176 L771.504,219.176 L771.504,204.68 L782.544,204.68 L782.544,213.224 C782.608,215.144 781.696,216.072 779.808,216.008 L779.808,216.008 L777.36,216.008 L777.36,219.416 L781.248,219.416 C785.536,219.512 787.632,217.432 787.536,213.176 L787.536,213.176 L787.536,178.712 L750.528,178.712 L750.528,204.248 C750.528,207.352 750.256,209.752 749.712,211.448 C749.168,213.144 748.096,214.888 746.496,216.68 L746.496,216.68 L746.496,220.232 Z M766.512,190.04 L755.52,190.04 L755.52,182.12 L766.512,182.12 L766.512,190.04 Z M782.544,190.04 L771.504,190.04 L771.504,182.12 L782.544,182.12 L782.544,190.04 Z M766.512,201.464 L755.52,201.464 L755.52,193.304 L766.512,193.304 L766.512,201.464 Z M782.544,201.464 L771.504,201.464 L771.504,193.304 L782.544,193.304 L782.544,201.464 Z M794.592,219.992 C801.344,216.92 804.48,211.72 804,204.392 L804,204.392 L804,200.744 L828.24,200.744 C832.848,200.84 835.104,198.584 835.008,193.976 L835.008,193.976 L835.008,181.256 L819.792,181.256 L819.792,176.552 L814.08,176.552 L814.08,181.256 L798.72,181.256 L798.72,205.496 C798.72,208.376 798.432,210.568 797.856,212.072 C797.312,213.608 796.224,215.128 794.592,216.632 L794.592,216.632 L794.592,219.992 Z M826.921013,197.33863 L826.704,197.336 L804,197.336 L804,184.664 L829.92,184.664 L829.92,194.024 C829.984,196.296 828.912,197.4 826.704,197.336 L826.921013,197.33863 Z M842.592,190.232 C850.528,188.184 855.472,183.64 857.424,176.6 L857.424,176.6 L852.336,176.6 C850.96,181.24 847.712,184.808 842.592,187.304 L842.592,187.304 L842.592,190.232 Z M883.776,182.744 L883.776,179.336 L861.072,179.336 L861.072,182.744 L883.776,182.744 Z M853.008,220.04 L853.008,196.232 C854.832,194.312 856.304,191.656 857.424,188.264 L857.424,188.264 L852.336,188.264 C850.8,192.968 847.536,196.552 842.544,199.016 L842.544,199.016 L842.544,201.944 C844.752,201.272 846.656,200.536 848.256,199.736 L848.256,199.736 L848.256,220.04 L853.008,220.04 Z M872.688,219.272 C876.592,219.336 878.528,217.288 878.496,213.128 L878.496,213.128 L878.496,194.504 L885.888,194.504 L885.888,191.096 L858.864,191.096 L858.864,194.504 L873.36,194.504 L873.36,213.176 C873.392,215.064 872.48,215.992 870.624,215.96 L870.624,215.96 L866.64,215.96 L866.64,219.272 L872.688,219.272 Z M891.312,220.28 C905.104,212.664 912.112,201.912 912.336,188.024 L912.336,188.024 L926.256,188.024 L926.256,211.928 C926.416,214.456 925.248,215.64 922.752,215.48 L922.752,215.48 L918.528,215.48 L918.528,218.936 L924.384,218.936 C929.248,219.096 931.6,216.712 931.44,211.784 L931.44,211.784 L931.44,184.568 L912.528,184.568 L912.528,184.568 L912.528,182.984 C912.56,182.216 912.576,181.64 912.576,181.256 L912.576,181.256 L912.576,176.312 L907.248,176.312 L907.248,182.408 C907.248,183.176 907.232,183.896 907.2,184.568 L907.2,184.568 L902.592,184.568 C901.984,182.008 901.008,179.528 899.664,177.128 L899.664,177.128 L895.488,177.128 C896.64,179.528 897.552,182.008 898.224,184.568 L898.224,184.568 L891.84,184.568 L891.84,188.024 L907.104,188.024 C907.168,198.936 901.904,208.488 891.312,216.68 L891.312,216.68 L891.312,220.28 Z M920.88,207.224 C920.144,203.224 918.96,199.496 917.328,196.04 L917.328,196.04 L913.056,196.04 C914.592,199.688 915.648,203.416 916.224,207.224 L916.224,207.224 L920.88,207.224 Z M938.496,197.384 C948.672,193.768 954.768,187.064 956.784,177.272 L956.784,177.272 L951.6,177.272 C949.968,185.016 945.6,190.664 938.496,194.216 L938.496,194.216 L938.496,197.384 Z M981.504,197.384 L981.504,194.216 C974.368,190.664 969.984,185.016 968.352,177.272 L968.352,177.272 L963.168,177.272 C965.184,187.096 971.296,193.8 981.504,197.384 L981.504,197.384 Z M940.128,220.184 C951.2,216.152 956.848,208.728 957.072,197.912 L957.072,197.912 L969.264,197.912 L969.264,211.976 C969.36,214.344 968.272,215.48 966,215.384 L966,215.384 L962.496,215.384 L962.496,218.792 L967.728,218.792 C972.272,218.952 974.464,216.744 974.304,212.168 L974.304,212.168 L974.304,194.504 L944.88,194.504 L944.88,197.912 L952.032,197.912 C951.936,206.552 947.968,212.872 940.128,216.872 L940.128,216.872 L940.128,220.184 Z M997.104,219.944 L997.104,196.472 C998.352,199.32 1000.16,202.28 1002.528,205.352 L1002.528,205.352 L1002.528,200.408 C1000.16,196.44 998.384,191.848 997.2,186.632 L997.2,186.632 L1002.72,186.632 L1002.72,183.368 L997.104,183.368 L997.104,176.552 L992.352,176.552 L992.352,183.368 L986.688,183.368 L986.688,186.632 L992.064,186.632 C990.72,193.48 988.704,199.72 986.016,205.352 L986.016,205.352 L986.016,210.536 C988.864,206.312 990.976,202.328 992.352,198.584 L992.352,198.584 L992.352,219.944 L997.104,219.944 Z M1001.328,219.704 C1007.344,216.92 1010.192,211.416 1009.872,203.192 L1009.872,203.192 L1009.872,194.744 L1018.032,194.744 L1018.032,219.608 L1022.88,219.608 L1022.88,194.744 L1029.984,194.744 L1029.984,191.528 L1009.872,191.528 L1009.872,182.264 L1020.576,182.264 C1023.488,182.328 1026.144,181.88 1028.544,180.92 L1028.544,180.92 L1028.544,177.416 C1025.28,178.536 1022.256,179.064 1019.472,179 L1019.472,179 L1004.88,179 L1004.88,204.296 C1005.008,209.928 1003.824,213.96 1001.328,216.392 L1001.328,216.392 L1001.328,219.704 Z M1053.12,219.464 C1056.928,219.528 1058.816,217.672 1058.784,213.896 L1058.784,213.896 L1058.784,203.624 C1062.208,203.496 1065.936,203.304 1069.968,203.048 C1070.096,203.432 1070.272,204.008 1070.496,204.776 C1070.56,205.128 1070.624,205.4 1070.688,205.592 L1070.688,205.592 L1075.344,205.592 C1074.416,201.88 1072.736,198.12 1070.304,194.312 L1070.304,194.312 L1066.032,194.312 C1067.248,196.456 1068.176,198.296 1068.816,199.832 C1062.352,200.28 1054.832,200.504 1046.256,200.504 C1055.568,197.176 1064.528,192.44 1073.136,186.296 L1073.136,186.296 L1065.696,186.296 C1063.936,187.448 1062.112,188.584 1060.224,189.704 C1056.416,189.96 1051.872,190.088 1046.592,190.088 C1050.784,188.424 1055.056,185.992 1059.408,182.792 L1059.408,182.792 L1062.528,182.792 C1065.056,182.792 1067.248,182.68 1069.104,182.456 C1070.96,182.264 1073.216,181.88 1075.872,181.304 L1075.872,181.304 L1075.872,177.752 C1071.168,178.84 1066.304,179.352 1061.28,179.288 L1061.28,179.288 L1036.56,179.288 L1036.56,182.792 L1052.16,182.792 C1048.064,185.736 1043.6,188.152 1038.768,190.04 L1038.768,190.04 L1038.768,193.352 C1044.848,193.352 1050.08,193.208 1054.464,192.92 C1048.768,195.896 1042.992,198.408 1037.136,200.456 L1037.136,200.456 L1037.136,203.912 C1042.992,203.944 1048.544,203.912 1053.792,203.816 L1053.792,203.816 L1053.792,213.56 C1053.856,215.384 1052.96,216.264 1051.104,216.2 L1051.104,216.2 L1048.848,216.2 L1048.848,219.464 L1053.12,219.464 Z M1077.216,217.88 L1077.216,214.952 C1072.448,213.032 1069.408,210.104 1068.096,206.168 L1068.096,206.168 L1063.2,206.168 C1064.864,212.184 1069.536,216.088 1077.216,217.88 L1077.216,217.88 Z M1034.736,217.88 C1042.416,216.12 1047.088,212.216 1048.752,206.168 L1048.752,206.168 L1043.856,206.168 C1042.544,210.104 1039.504,213.032 1034.736,214.952 L1034.736,214.952 L1034.736,217.88 Z M1083.312,206.216 C1086.16,206.248 1088.576,206.168 1090.56,205.976 C1092.544,205.816 1094.608,205.512 1096.752,205.064 L1096.752,205.064 L1096.752,201.848 C1093.84,202.456 1090.768,202.744 1087.536,202.712 C1092.144,197.976 1095.648,192.328 1098.048,185.768 L1098.048,185.768 L1093.632,185.768 C1092.96,187.592 1092.304,189.192 1091.664,190.568 C1089.968,190.824 1088.144,190.92 1086.192,190.856 C1089.424,186.792 1091.84,182.056 1093.44,176.648 L1093.44,176.648 L1088.832,176.648 C1087.648,181.768 1085.504,186.504 1082.4,190.856 L1082.4,190.856 L1082.4,194.216 C1085.536,194.28 1088.016,194.216 1089.84,194.024 C1088.272,196.712 1086.096,199.592 1083.312,202.664 L1083.312,202.664 L1083.312,206.216 Z M1095.36,219.992 C1104.224,216.664 1108.368,210.616 1107.792,201.848 L1107.792,201.848 L1107.792,197.96 C1109.264,197.928 1110.688,197.864 1112.064,197.768 L1112.064,197.768 L1112.064,213.176 C1111.968,217.016 1113.92,218.888 1117.92,218.792 L1117.92,218.792 L1120.368,218.792 C1124.08,218.856 1125.904,217.08 1125.84,213.464 L1125.84,213.464 L1125.84,211.016 L1122.576,211.016 L1122.576,212.552 C1122.672,214.632 1121.68,215.624 1119.6,215.528 C1117.424,215.656 1116.4,214.68 1116.528,212.6 L1116.528,212.6 L1116.528,197.384 C1117.712,197.288 1118.88,197.16 1120.032,197 C1120.32,197.928 1120.496,198.536 1120.56,198.824 C1120.688,199.272 1120.784,199.624 1120.848,199.88 L1120.848,199.88 L1125.12,199.88 C1123.968,195.688 1122.304,191.736 1120.128,188.024 L1120.128,188.024 L1116.192,188.024 C1117.504,190.552 1118.416,192.504 1118.928,193.88 C1116.432,194.136 1114,194.312 1111.632,194.408 C1109.296,194.504 1106.384,194.536 1102.896,194.504 C1106,191.752 1108.8,188.216 1111.296,183.896 L1111.296,183.896 L1125.216,183.896 L1125.216,180.632 L1113.696,180.632 L1113.696,176.648 L1108.656,176.648 L1108.656,180.632 L1097.04,180.632 L1097.04,183.896 L1105.872,183.896 C1104.016,187.672 1101.392,191.208 1098,194.504 L1098,194.504 L1098,198.056 L1103.328,198.056 L1103.32892,202.183417 C1103.31231,205.823806 1102.752,208.656 1101.648,210.68 C1100.56,212.792 1098.464,214.824 1095.36,216.776 L1095.36,216.776 L1095.36,219.992 Z M1082.208,215.096 C1087.84,215.128 1092.896,214.408 1097.376,212.936 L1097.376,212.936 L1097.376,209.912 C1092.704,211.032 1087.648,211.528 1082.208,211.4 L1082.208,211.4 L1082.208,215.096 Z" id="电子商务用户行为分析系统"></path>
        </g>
    </g>
</svg>