<?xml version="1.0" encoding="UTF-8"?>
<svg width="813px" height="405px" viewBox="0 0 813 405" version="1.1" xmlns="http://www.w3.org/2000/svg" xmlns:xlink="http://www.w3.org/1999/xlink">
    <!-- Generator: Sketch 63.1 (92452) - https://sketch.com -->
    <title>形状结合</title>
    <desc>Created with Sketch.</desc>
    <g id="页面-1" stroke="none" stroke-width="1" fill="none" fill-rule="evenodd">
        <g id="P3-登录" transform="translate(-66.000000, -249.000000)" fill="#FFFFFF" fill-rule="nonzero">
            <path d="M446.643317,289.234085 L275.67,522.905 L358.537697,653.839764 L163.167553,517.064658 L446.643317,289.234085 Z M441.356,294.766 L164.832,517.009 L355.026,650.16 L274.461027,522.864677 L441.356,294.766 Z M690.21,636.762 L692.422,642.474 L694.564,636.762 L695.796,636.762 L691.834,646.772 L690.616,646.772 L691.862,643.832 L688.992,636.762 L690.21,636.762 Z M643.31,636.762 L645.522,642.474 L647.664,636.762 L648.896,636.762 L644.934,646.772 L643.716,646.772 L644.962,643.832 L642.092,636.762 L643.31,636.762 Z M504.43,636.566 C506.222,636.566 507.202,637.308 507.398,638.82 L507.398,638.82 L506.306,638.82 C506.208,638.372 506.026,638.036 505.746,637.84 C505.438,637.616 504.99,637.504 504.416,637.504 C503.912,637.504 503.52,637.588 503.24,637.784 C502.932,637.966 502.778,638.218 502.778,638.54 C502.778,638.848 502.974,639.114 503.394,639.324 C503.66,639.45 504.164,639.604 504.892,639.8 C505.76,640.01 506.376,640.234 506.754,640.472 C507.328,640.836 507.622,641.326 507.622,641.956 C507.622,643.44 506.6,644.196 504.556,644.196 C502.652,644.196 501.616,643.356 501.448,641.69 L501.448,641.69 L502.54,641.69 C502.624,642.264 502.834,642.67 503.142,642.922 C503.45,643.146 503.912,643.258 504.528,643.258 C505.816,643.258 506.474,642.838 506.474,642.026 C506.474,641.62 506.236,641.312 505.788,641.088 C505.55,640.976 505.032,640.822 504.248,640.626 C503.394,640.416 502.792,640.206 502.456,639.982 C501.896,639.646 501.63,639.184 501.63,638.568 C501.63,637.952 501.896,637.476 502.442,637.112 C502.946,636.748 503.618,636.566 504.43,636.566 Z M493.398,636.762 L493.398,641.186 C493.398,641.872 493.538,642.39 493.832,642.726 C494.126,643.062 494.602,643.244 495.26,643.244 C495.736,643.244 496.17,643.048 496.548,642.684 C496.94,642.292 497.178,641.788 497.262,641.172 L497.262,641.172 L497.262,636.762 L498.382,636.762 L498.382,644 L497.262,644 L497.262,642.88 C496.674,643.748 495.89,644.196 494.91,644.196 C493.146,644.196 492.278,643.202 492.278,641.242 L492.278,641.242 L492.278,636.762 L493.398,636.762 Z M406.878,636.566 C407.774,636.566 408.488,636.776 409.034,637.196 C409.594,637.63 409.93,638.288 410.056,639.17 L410.056,639.17 L408.95,639.17 C408.852,638.61 408.628,638.19 408.278,637.91 C407.914,637.63 407.452,637.504 406.878,637.504 C406.178,637.504 405.618,637.77 405.212,638.302 C404.82,638.82 404.624,639.52 404.624,640.402 C404.624,641.284 404.806,641.984 405.198,642.488 C405.576,642.992 406.136,643.258 406.864,643.258 C408.096,643.258 408.81,642.628 408.978,641.382 L408.978,641.382 L410.098,641.382 C409.93,642.306 409.58,643.02 409.02,643.496 C408.474,643.958 407.76,644.196 406.864,644.196 C405.772,644.196 404.932,643.832 404.33,643.104 C403.756,642.418 403.476,641.522 403.476,640.416 C403.476,639.31 403.756,638.414 404.33,637.714 C404.946,636.944 405.8,636.566 406.878,636.566 Z M654.146,636.566 C655.938,636.566 656.918,637.308 657.114,638.82 L657.114,638.82 L656.022,638.82 C655.924,638.372 655.742,638.036 655.462,637.84 C655.154,637.616 654.706,637.504 654.132,637.504 C653.628,637.504 653.236,637.588 652.956,637.784 C652.648,637.966 652.494,638.218 652.494,638.54 C652.494,638.848 652.69,639.114 653.11,639.324 C653.376,639.45 653.88,639.604 654.608,639.8 C655.476,640.01 656.092,640.234 656.47,640.472 C657.044,640.836 657.338,641.326 657.338,641.956 C657.338,643.44 656.316,644.196 654.272,644.196 C652.368,644.196 651.332,643.356 651.164,641.69 L651.164,641.69 L652.256,641.69 C652.34,642.264 652.55,642.67 652.858,642.922 C653.166,643.146 653.628,643.258 654.244,643.258 C655.532,643.258 656.19,642.838 656.19,642.026 C656.19,641.62 655.952,641.312 655.504,641.088 C655.266,640.976 654.748,640.822 653.964,640.626 C653.11,640.416 652.508,640.206 652.172,639.982 C651.612,639.646 651.346,639.184 651.346,638.568 C651.346,637.952 651.612,637.476 652.158,637.112 C652.662,636.748 653.334,636.566 654.146,636.566 Z M416.398,636.566 C417.476,636.566 418.344,636.93 418.988,637.686 C419.604,638.4 419.912,639.296 419.912,640.388 C419.912,641.466 419.604,642.362 419.002,643.062 C418.344,643.818 417.476,644.196 416.398,644.196 C415.306,644.196 414.452,643.818 413.808,643.062 C413.192,642.362 412.884,641.466 412.884,640.388 C412.884,639.296 413.192,638.4 413.808,637.686 C414.452,636.93 415.306,636.566 416.398,636.566 Z M668.3,636.566 C670.092,636.566 671.072,637.308 671.268,638.82 L671.268,638.82 L670.176,638.82 C670.078,638.372 669.896,638.036 669.616,637.84 C669.308,637.616 668.86,637.504 668.286,637.504 C667.782,637.504 667.39,637.588 667.11,637.784 C666.802,637.966 666.648,638.218 666.648,638.54 C666.648,638.848 666.844,639.114 667.264,639.324 C667.53,639.45 668.034,639.604 668.762,639.8 C669.63,640.01 670.246,640.234 670.624,640.472 C671.198,640.836 671.492,641.326 671.492,641.956 C671.492,643.44 670.47,644.196 668.426,644.196 C666.522,644.196 665.486,643.356 665.318,641.69 L665.318,641.69 L666.41,641.69 C666.494,642.264 666.704,642.67 667.012,642.922 C667.32,643.146 667.782,643.258 668.398,643.258 C669.686,643.258 670.344,642.838 670.344,642.026 C670.344,641.62 670.106,641.312 669.658,641.088 C669.42,640.976 668.902,640.822 668.118,640.626 C667.264,640.416 666.662,640.206 666.326,639.982 C665.766,639.646 665.5,639.184 665.5,638.568 C665.5,637.952 665.766,637.476 666.312,637.112 C666.816,636.748 667.488,636.566 668.3,636.566 Z M631.424,636.566 C632.46,636.566 633.216,636.832 633.72,637.378 C634.14,637.854 634.364,638.512 634.364,639.352 L634.364,639.352 L634.364,644 L633.314,644 L633.314,642.782 C633.034,643.174 632.656,643.496 632.208,643.748 C631.676,644.042 631.074,644.196 630.402,644.196 C629.674,644.196 629.1,644.014 628.666,643.65 C628.218,643.272 627.994,642.782 627.994,642.194 C627.994,641.368 628.316,640.752 628.988,640.332 C629.576,639.94 630.416,639.73 631.508,639.716 L631.508,639.716 L633.244,639.688 L633.244,639.31 C633.244,638.092 632.614,637.49 631.354,637.49 C630.822,637.49 630.388,637.588 630.052,637.812 C629.674,638.036 629.436,638.386 629.324,638.848 L629.324,638.848 L628.218,638.764 C628.372,638.008 628.75,637.434 629.338,637.07 C629.87,636.734 630.556,636.566 631.424,636.566 Z M683.532,636.566 C685.324,636.566 686.304,637.308 686.5,638.82 L686.5,638.82 L685.408,638.82 C685.31,638.372 685.128,638.036 684.848,637.84 C684.54,637.616 684.092,637.504 683.518,637.504 C683.014,637.504 682.622,637.588 682.342,637.784 C682.034,637.966 681.88,638.218 681.88,638.54 C681.88,638.848 682.076,639.114 682.496,639.324 C682.762,639.45 683.266,639.604 683.994,639.8 C684.862,640.01 685.478,640.234 685.856,640.472 C686.43,640.836 686.724,641.326 686.724,641.956 C686.724,643.44 685.702,644.196 683.658,644.196 C681.754,644.196 680.718,643.356 680.55,641.69 L680.55,641.69 L681.642,641.69 C681.726,642.264 681.936,642.67 682.244,642.922 C682.552,643.146 683.014,643.258 683.63,643.258 C684.918,643.258 685.576,642.838 685.576,642.026 C685.576,641.62 685.338,641.312 684.89,641.088 C684.652,640.976 684.134,640.822 683.35,640.626 C682.496,640.416 681.894,640.206 681.558,639.982 C680.998,639.646 680.732,639.184 680.732,638.568 C680.732,637.952 680.998,637.476 681.544,637.112 C682.048,636.748 682.72,636.566 683.532,636.566 Z M513.67,636.566 C514.832,636.566 515.714,636.958 516.302,637.742 C516.834,638.442 517.114,639.436 517.142,640.696 L517.142,640.696 L511.43,640.696 C511.486,641.508 511.696,642.138 512.088,642.586 C512.48,643.034 513.026,643.258 513.712,643.258 C514.3,643.258 514.79,643.104 515.154,642.81 C515.462,642.558 515.7,642.18 515.882,641.676 L515.882,641.676 L517.002,641.676 C516.834,642.376 516.512,642.936 516.022,643.384 C515.42,643.916 514.65,644.196 513.712,644.196 C512.676,644.196 511.836,643.846 511.22,643.174 C510.576,642.474 510.268,641.55 510.268,640.374 C510.268,639.31 510.562,638.414 511.178,637.7 C511.794,636.944 512.62,636.566 513.67,636.566 Z M453.54,636.566 C454.702,636.566 455.584,636.958 456.172,637.742 C456.704,638.442 456.984,639.436 457.012,640.696 L457.012,640.696 L451.3,640.696 C451.356,641.508 451.566,642.138 451.958,642.586 C452.35,643.034 452.896,643.258 453.582,643.258 C454.17,643.258 454.66,643.104 455.024,642.81 C455.332,642.558 455.57,642.18 455.752,641.676 L455.752,641.676 L456.872,641.676 C456.704,642.376 456.382,642.936 455.892,643.384 C455.29,643.916 454.52,644.196 453.582,644.196 C452.546,644.196 451.706,643.846 451.09,643.174 C450.446,642.474 450.138,641.55 450.138,640.374 C450.138,639.31 450.432,638.414 451.048,637.7 C451.664,636.944 452.49,636.566 453.54,636.566 Z M470.06,636.566 C470.956,636.566 471.67,636.776 472.216,637.196 C472.776,637.63 473.112,638.288 473.238,639.17 L473.238,639.17 L472.132,639.17 C472.034,638.61 471.81,638.19 471.46,637.91 C471.096,637.63 470.634,637.504 470.06,637.504 C469.36,637.504 468.8,637.77 468.394,638.302 C468.002,638.82 467.806,639.52 467.806,640.402 C467.806,641.284 467.988,641.984 468.38,642.488 C468.758,642.992 469.318,643.258 470.046,643.258 C471.278,643.258 471.992,642.628 472.16,641.382 L472.16,641.382 L473.28,641.382 C473.112,642.306 472.762,643.02 472.202,643.496 C471.656,643.958 470.942,644.196 470.046,644.196 C468.954,644.196 468.114,643.832 467.512,643.104 C466.938,642.418 466.658,641.522 466.658,640.416 C466.658,639.31 466.938,638.414 467.512,637.714 C468.128,636.944 468.982,636.566 470.06,636.566 Z M534.6,633.808 L534.6,638.092 C535.16,637.07 535.958,636.566 536.994,636.566 C538.016,636.566 538.828,636.944 539.416,637.728 C539.948,638.428 540.228,639.296 540.228,640.36 C540.228,641.452 539.948,642.348 539.416,643.048 C538.814,643.804 537.988,644.196 536.938,644.196 C535.818,644.196 535.02,643.734 534.53,642.81 L534.53,642.81 L534.53,644 L533.48,644 L533.48,633.808 L534.6,633.808 Z M612.272,636.566 C613.308,636.566 614.064,636.832 614.568,637.378 C614.988,637.854 615.212,638.512 615.212,639.352 L615.212,639.352 L615.212,644 L614.162,644 L614.162,642.782 C613.882,643.174 613.504,643.496 613.056,643.748 C612.524,644.042 611.922,644.196 611.25,644.196 C610.522,644.196 609.948,644.014 609.514,643.65 C609.066,643.272 608.842,642.782 608.842,642.194 C608.842,641.368 609.164,640.752 609.836,640.332 C610.424,639.94 611.264,639.73 612.356,639.716 L612.356,639.716 L614.092,639.688 L614.092,639.31 C614.092,638.092 613.462,637.49 612.202,637.49 C611.67,637.49 611.236,637.588 610.9,637.812 C610.522,638.036 610.284,638.386 610.172,638.848 L610.172,638.848 L609.066,638.764 C609.22,638.008 609.598,637.434 610.186,637.07 C610.718,636.734 611.404,636.566 612.272,636.566 Z M546.416,636.566 C547.578,636.566 548.46,636.958 549.048,637.742 C549.58,638.442 549.86,639.436 549.888,640.696 L549.888,640.696 L544.176,640.696 C544.232,641.508 544.442,642.138 544.834,642.586 C545.226,643.034 545.772,643.258 546.458,643.258 C547.046,643.258 547.536,643.104 547.9,642.81 C548.208,642.558 548.446,642.18 548.628,641.676 L548.628,641.676 L549.748,641.676 C549.58,642.376 549.258,642.936 548.768,643.384 C548.166,643.916 547.396,644.196 546.458,644.196 C545.422,644.196 544.582,643.846 543.966,643.174 C543.322,642.474 543.014,641.55 543.014,640.374 C543.014,639.31 543.308,638.414 543.924,637.7 C544.54,636.944 545.366,636.566 546.416,636.566 Z M701.046,636.566 C702.838,636.566 703.818,637.308 704.014,638.82 L704.014,638.82 L702.922,638.82 C702.824,638.372 702.642,638.036 702.362,637.84 C702.054,637.616 701.606,637.504 701.032,637.504 C700.528,637.504 700.136,637.588 699.856,637.784 C699.548,637.966 699.394,638.218 699.394,638.54 C699.394,638.848 699.59,639.114 700.01,639.324 C700.276,639.45 700.78,639.604 701.508,639.8 C702.376,640.01 702.992,640.234 703.37,640.472 C703.944,640.836 704.238,641.326 704.238,641.956 C704.238,643.44 703.216,644.196 701.172,644.196 C699.268,644.196 698.232,643.356 698.064,641.69 L698.064,641.69 L699.156,641.69 C699.24,642.264 699.45,642.67 699.758,642.922 C700.066,643.146 700.528,643.258 701.144,643.258 C702.432,643.258 703.09,642.838 703.09,642.026 C703.09,641.62 702.852,641.312 702.404,641.088 C702.166,640.976 701.648,640.822 700.864,640.626 C700.01,640.416 699.408,640.206 699.072,639.982 C698.512,639.646 698.246,639.184 698.246,638.568 C698.246,637.952 698.512,637.476 699.058,637.112 C699.562,636.748 700.234,636.566 701.046,636.566 Z M479.328,636.566 C480.49,636.566 481.372,636.958 481.96,637.742 C482.492,638.442 482.772,639.436 482.8,640.696 L482.8,640.696 L477.088,640.696 C477.144,641.508 477.354,642.138 477.746,642.586 C478.138,643.034 478.684,643.258 479.37,643.258 C479.958,643.258 480.448,643.104 480.812,642.81 C481.12,642.558 481.358,642.18 481.54,641.676 L481.54,641.676 L482.66,641.676 C482.492,642.376 482.17,642.936 481.68,643.384 C481.078,643.916 480.308,644.196 479.37,644.196 C478.334,644.196 477.494,643.846 476.878,643.174 C476.234,642.474 475.926,641.55 475.926,640.374 C475.926,639.31 476.22,638.414 476.836,637.7 C477.452,636.944 478.278,636.566 479.328,636.566 Z M589.13,636.566 C590.208,636.566 591.076,636.93 591.72,637.686 C592.336,638.4 592.644,639.296 592.644,640.388 C592.644,641.466 592.336,642.362 591.734,643.062 C591.076,643.818 590.208,644.196 589.13,644.196 C588.038,644.196 587.184,643.818 586.54,643.062 C585.924,642.362 585.616,641.466 585.616,640.388 C585.616,639.296 585.924,638.4 586.54,637.686 C587.184,636.93 588.038,636.566 589.13,636.566 Z M565.638,636.566 C566.674,636.566 567.43,636.832 567.934,637.378 C568.354,637.854 568.578,638.512 568.578,639.352 L568.578,639.352 L568.578,644 L567.528,644 L567.528,642.782 C567.248,643.174 566.87,643.496 566.422,643.748 C565.89,644.042 565.288,644.196 564.616,644.196 C563.888,644.196 563.314,644.014 562.88,643.65 C562.432,643.272 562.208,642.782 562.208,642.194 C562.208,641.368 562.53,640.752 563.202,640.332 C563.79,639.94 564.63,639.73 565.722,639.716 L565.722,639.716 L567.458,639.688 L567.458,639.31 C567.458,638.092 566.828,637.49 565.568,637.49 C565.036,637.49 564.602,637.588 564.266,637.812 C563.888,638.036 563.65,638.386 563.538,638.848 L563.538,638.848 L562.432,638.764 C562.586,638.008 562.964,637.434 563.552,637.07 C564.084,636.734 564.77,636.566 565.638,636.566 Z M717.006,636.566 C718.168,636.566 719.05,636.958 719.638,637.742 C720.17,638.442 720.45,639.436 720.478,640.696 L720.478,640.696 L714.766,640.696 C714.822,641.508 715.032,642.138 715.424,642.586 C715.816,643.034 716.362,643.258 717.048,643.258 C717.636,643.258 718.126,643.104 718.49,642.81 C718.798,642.558 719.036,642.18 719.218,641.676 L719.218,641.676 L720.338,641.676 C720.17,642.376 719.848,642.936 719.358,643.384 C718.756,643.916 717.986,644.196 717.048,644.196 C716.012,644.196 715.172,643.846 714.556,643.174 C713.912,642.474 713.604,641.55 713.604,640.374 C713.604,639.31 713.898,638.414 714.514,637.7 C715.13,636.944 715.956,636.566 717.006,636.566 Z M390.092,634.004 L390.092,634.998 L384.156,634.998 L384.156,638.344 L389.756,638.344 L389.756,639.338 L384.156,639.338 L384.156,643.006 L390.33,643.006 L390.33,644 L383.008,644 L383.008,634.004 L390.092,634.004 Z M444.552,636.566 C445.308,636.566 445.91,636.804 446.386,637.28 C446.834,637.77 447.072,638.428 447.072,639.254 L447.072,639.254 L447.072,644 L445.952,644 L445.952,639.436 C445.952,638.792 445.812,638.316 445.546,638.008 C445.266,637.672 444.818,637.518 444.202,637.518 C443.726,637.518 443.32,637.686 443.012,638.05 C442.676,638.414 442.522,638.876 442.522,639.464 L442.522,639.464 L442.522,644 L441.402,644 L441.402,639.436 C441.402,638.148 440.842,637.518 439.736,637.518 C439.218,637.518 438.798,637.714 438.462,638.134 C438.126,638.526 437.958,639.016 437.958,639.59 L437.958,639.59 L437.958,644 L436.838,644 L436.838,636.762 L437.958,636.762 L437.958,637.728 C438.504,636.944 439.19,636.566 440.002,636.566 C441.108,636.566 441.864,637.014 442.27,637.938 C442.55,637.462 442.886,637.112 443.278,636.902 C443.628,636.678 444.048,636.566 444.552,636.566 Z M731.258,636.566 C732.014,636.566 732.616,636.804 733.092,637.28 C733.54,637.77 733.778,638.428 733.778,639.254 L733.778,639.254 L733.778,644 L732.658,644 L732.658,639.436 C732.658,638.792 732.518,638.316 732.252,638.008 C731.972,637.672 731.524,637.518 730.908,637.518 C730.432,637.518 730.026,637.686 729.718,638.05 C729.382,638.414 729.228,638.876 729.228,639.464 L729.228,639.464 L729.228,644 L728.108,644 L728.108,639.436 C728.108,638.148 727.548,637.518 726.442,637.518 C725.924,637.518 725.504,637.714 725.168,638.134 C724.832,638.526 724.664,639.016 724.664,639.59 L724.664,639.59 L724.664,644 L723.544,644 L723.544,636.762 L724.664,636.762 L724.664,637.728 C725.21,636.944 725.896,636.566 726.708,636.566 C727.814,636.566 728.57,637.014 728.976,637.938 C729.256,637.462 729.592,637.112 729.984,636.902 C730.334,636.678 730.754,636.566 731.258,636.566 Z M709.236,634.424 L709.236,636.762 L711.028,636.762 L711.028,637.7 L709.236,637.7 L709.236,642.306 C709.236,642.572 709.278,642.768 709.39,642.88 C709.488,642.992 709.67,643.062 709.922,643.062 L709.922,643.062 L710.846,643.062 L710.846,644 L709.754,644 C709.166,644 708.732,643.846 708.48,643.538 C708.242,643.258 708.13,642.852 708.13,642.306 L708.13,642.306 L708.13,637.7 L706.674,637.7 L706.674,636.762 L708.13,636.762 L708.13,634.886 L709.236,634.424 Z M661.888,636.762 L661.888,644 L660.768,644 L660.768,636.762 L661.888,636.762 Z M523.386,636.566 C523.778,636.566 524.114,636.622 524.38,636.734 L524.38,636.734 L524.38,637.854 C524.016,637.742 523.652,637.7 523.302,637.7 C522.742,637.7 522.266,637.938 521.888,638.442 C521.496,638.918 521.314,639.492 521.314,640.164 L521.314,640.164 L521.314,644 L520.208,644 L520.208,636.762 L521.314,636.762 L521.314,638.022 C521.51,637.602 521.762,637.266 522.07,637.028 C522.448,636.72 522.882,636.566 523.386,636.566 Z M463.256,636.566 C463.648,636.566 463.984,636.622 464.25,636.734 L464.25,636.734 L464.25,637.854 C463.886,637.742 463.522,637.7 463.172,637.7 C462.612,637.7 462.136,637.938 461.758,638.442 C461.366,638.918 461.184,639.492 461.184,640.164 L461.184,640.164 L461.184,644 L460.078,644 L460.078,636.762 L461.184,636.762 L461.184,638.022 C461.38,637.602 461.632,637.266 461.94,637.028 C462.318,636.72 462.752,636.566 463.256,636.566 Z M430.832,636.566 C431.588,636.566 432.19,636.804 432.666,637.28 C433.114,637.77 433.352,638.428 433.352,639.254 L433.352,639.254 L433.352,644 L432.232,644 L432.232,639.436 C432.232,638.792 432.092,638.316 431.826,638.008 C431.546,637.672 431.098,637.518 430.482,637.518 C430.006,637.518 429.6,637.686 429.292,638.05 C428.956,638.414 428.802,638.876 428.802,639.464 L428.802,639.464 L428.802,644 L427.682,644 L427.682,639.436 C427.682,638.148 427.122,637.518 426.016,637.518 C425.498,637.518 425.078,637.714 424.742,638.134 C424.406,638.526 424.238,639.016 424.238,639.59 L424.238,639.59 L424.238,644 L423.118,644 L423.118,636.762 L424.238,636.762 L424.238,637.728 C424.784,636.944 425.47,636.566 426.282,636.566 C427.388,636.566 428.144,637.014 428.55,637.938 C428.83,637.462 429.166,637.112 429.558,636.902 C429.908,636.678 430.328,636.566 430.832,636.566 Z M639.18,633.808 L639.18,644 L638.074,644 L638.074,633.808 L639.18,633.808 Z M599.028,636.566 C599.42,636.566 599.756,636.622 600.022,636.734 L600.022,636.734 L600.022,637.854 C599.658,637.742 599.294,637.7 598.944,637.7 C598.384,637.7 597.908,637.938 597.53,638.442 C597.138,638.918 596.956,639.492 596.956,640.164 L596.956,640.164 L596.956,644 L595.85,644 L595.85,636.762 L596.956,636.762 L596.956,638.022 C597.152,637.602 597.404,637.266 597.712,637.028 C598.09,636.72 598.524,636.566 599.028,636.566 Z M582.046,636.762 L582.046,644 L580.926,644 L580.926,636.762 L582.046,636.762 Z M622.086,636.566 C623.878,636.566 624.788,637.56 624.788,639.548 L624.788,639.548 L624.788,644 L623.668,644 L623.668,639.632 C623.668,638.218 623.024,637.518 621.764,637.518 C621.26,637.518 620.826,637.7 620.462,638.064 C620.07,638.456 619.86,638.974 619.818,639.632 L619.818,639.632 L619.818,644 L618.698,644 L618.698,636.762 L619.818,636.762 L619.818,637.826 C620.07,637.42 620.392,637.112 620.784,636.902 C621.176,636.678 621.61,636.566 622.086,636.566 Z M554.074,633.808 L554.074,637.952 C554.326,637.49 554.662,637.14 555.082,636.902 C555.474,636.678 555.908,636.566 556.398,636.566 C557.238,636.566 557.896,636.804 558.344,637.308 C558.792,637.798 559.016,638.512 559.016,639.436 L559.016,639.436 L559.016,644 L557.896,644 L557.896,639.604 C557.896,638.932 557.728,638.414 557.42,638.05 C557.084,637.686 556.622,637.504 556.02,637.504 C555.46,637.504 554.998,637.728 554.634,638.176 C554.256,638.624 554.074,639.198 554.074,639.87 L554.074,639.87 L554.074,644 L552.954,644 L552.954,633.808 L554.074,633.808 Z M572.498,636.762 L574.57,642.6 L576.642,636.762 L577.874,636.762 L575.13,644 L573.996,644 L571.266,636.762 L572.498,636.762 Z M567.458,640.528 L565.792,640.556 C564.168,640.584 563.356,641.116 563.356,642.166 C563.356,642.502 563.482,642.768 563.762,642.992 C564.042,643.202 564.406,643.314 564.854,643.314 C565.54,643.314 566.142,643.09 566.674,642.642 C567.192,642.208 567.458,641.704 567.458,641.144 L567.458,641.144 L567.458,640.528 Z M633.244,640.528 L631.578,640.556 C629.954,640.584 629.142,641.116 629.142,642.166 C629.142,642.502 629.268,642.768 629.548,642.992 C629.828,643.202 630.192,643.314 630.64,643.314 C631.326,643.314 631.928,643.09 632.46,642.642 C632.978,642.208 633.244,641.704 633.244,641.144 L633.244,641.144 L633.244,640.528 Z M614.092,640.528 L612.426,640.556 C610.802,640.584 609.99,641.116 609.99,642.166 C609.99,642.502 610.116,642.768 610.396,642.992 C610.676,643.202 611.04,643.314 611.488,643.314 C612.174,643.314 612.776,643.09 613.308,642.642 C613.826,642.208 614.092,641.704 614.092,641.144 L614.092,641.144 L614.092,640.528 Z M536.756,637.49 C536.098,637.49 535.566,637.742 535.174,638.274 C534.754,638.792 534.558,639.478 534.558,640.318 L534.558,640.318 L534.558,640.458 C534.558,641.27 534.74,641.928 535.104,642.432 C535.496,642.992 536.07,643.272 536.798,643.272 C537.582,643.272 538.17,642.978 538.562,642.418 C538.898,641.914 539.08,641.228 539.08,640.36 C539.08,639.492 538.898,638.82 538.534,638.33 C538.128,637.77 537.54,637.49 536.756,637.49 Z M589.13,637.504 C588.36,637.504 587.758,637.798 587.338,638.386 C586.946,638.918 586.764,639.576 586.764,640.388 C586.764,641.186 586.946,641.844 587.338,642.376 C587.758,642.964 588.36,643.258 589.13,643.258 C589.886,643.258 590.488,642.964 590.936,642.376 C591.314,641.844 591.51,641.172 591.51,640.388 C591.51,639.576 591.314,638.918 590.936,638.386 C590.488,637.798 589.886,637.504 589.13,637.504 Z M416.398,637.504 C415.628,637.504 415.026,637.798 414.606,638.386 C414.214,638.918 414.032,639.576 414.032,640.388 C414.032,641.186 414.214,641.844 414.606,642.376 C415.026,642.964 415.628,643.258 416.398,643.258 C417.154,643.258 417.756,642.964 418.204,642.376 C418.582,641.844 418.778,641.172 418.778,640.388 C418.778,639.576 418.582,638.918 418.204,638.386 C417.756,637.798 417.154,637.504 416.398,637.504 Z M400.438,639.898 L400.438,640.85 L393.368,640.85 L393.368,639.898 L400.438,639.898 Z M513.698,637.504 C513.054,637.504 512.536,637.714 512.144,638.134 C511.752,638.554 511.528,639.114 511.458,639.828 L511.458,639.828 L515.98,639.828 C515.84,638.274 515.07,637.504 513.698,637.504 Z M546.444,637.504 C545.8,637.504 545.282,637.714 544.89,638.134 C544.498,638.554 544.274,639.114 544.204,639.828 L544.204,639.828 L548.726,639.828 C548.586,638.274 547.816,637.504 546.444,637.504 Z M717.034,637.504 C716.39,637.504 715.872,637.714 715.48,638.134 C715.088,638.554 714.864,639.114 714.794,639.828 L714.794,639.828 L719.316,639.828 C719.176,638.274 718.406,637.504 717.034,637.504 Z M453.568,637.504 C452.924,637.504 452.406,637.714 452.014,638.134 C451.622,638.554 451.398,639.114 451.328,639.828 L451.328,639.828 L455.85,639.828 C455.71,638.274 454.94,637.504 453.568,637.504 Z M479.356,637.504 C478.712,637.504 478.194,637.714 477.802,638.134 C477.41,638.554 477.186,639.114 477.116,639.828 L477.116,639.828 L481.638,639.828 C481.498,638.274 480.728,637.504 479.356,637.504 Z M581.486,634.032 C581.724,634.032 581.92,634.102 582.088,634.27 C582.256,634.41 582.34,634.606 582.34,634.858 C582.34,635.096 582.256,635.292 582.088,635.46 C581.92,635.614 581.724,635.698 581.486,635.698 C581.248,635.698 581.052,635.614 580.884,635.46 C580.716,635.292 580.646,635.096 580.646,634.858 C580.646,634.606 580.716,634.41 580.884,634.27 C581.052,634.102 581.248,634.032 581.486,634.032 Z M661.328,634.032 C661.566,634.032 661.762,634.102 661.93,634.27 C662.098,634.41 662.182,634.606 662.182,634.858 C662.182,635.096 662.098,635.292 661.93,635.46 C661.762,635.614 661.566,635.698 661.328,635.698 C661.09,635.698 660.894,635.614 660.726,635.46 C660.558,635.292 660.488,635.096 660.488,634.858 C660.488,634.606 660.558,634.41 660.726,634.27 C660.894,634.102 661.09,634.032 661.328,634.032 Z M691.504,579.148 L691.503344,583.607875 C691.500281,583.938625 691.4865,584.398 691.462,584.986 L691.462,584.986 L691.462,586.372 L708.01,586.372 L708.01,610.186 L708.015951,610.458211 C708.061431,614.585758 706.001447,616.581021 701.836,616.444 L701.836,616.444 L696.712,616.444 L696.712,613.42 L700.408,613.42 L700.622527,613.43008 C702.658842,613.489627 703.609333,612.450267 703.474,610.312 L703.474,610.312 L703.474,589.396 L691.294,589.396 L691.282603,589.893853 C690.928886,601.805239 684.800685,611.047288 672.898,617.62 L672.898,617.62 L672.898,614.47 L673.357515,614.110608 C682.318238,607.023069 686.771067,598.784867 686.716,589.396 L686.716,589.396 L673.36,589.396 L673.36,586.372 L678.946,586.372 L678.742222,585.627926 C678.178074,583.650642 677.448,581.728667 676.552,579.862 L676.552,579.862 L680.206,579.862 L680.493292,580.388458 C681.522097,582.324153 682.280333,584.318667 682.768,586.372 L682.768,586.372 L686.8,586.372 L686.818375,585.923125 C686.834125,585.466375 686.842,584.986 686.842,584.482 L686.842,584.482 L686.842,579.148 L691.504,579.148 Z M582.094,581.248 L582.094,611.404 L582.096749,611.660725 C582.09166,615.211621 580.256744,616.946047 576.592,616.864 L576.592,616.864 L573.19,616.864 L573.19,613.882 L575.332,613.882 L575.518825,613.884609 C577.044121,613.874254 577.779846,613.061385 577.726,611.446 L577.726,611.446 L577.726,603.97 L568.066,603.97 L568.066,616.654 L563.698,616.654 L563.698,603.97 L554.038,603.97 L554.041441,604.359237 C554.03736,610.294299 551.418213,614.700553 546.184,617.578 L546.184,617.578 L546.184,614.47 L546.476929,614.134643 C547.715643,612.684214 548.556,611.27 548.998,609.892 C549.474,608.408 549.712,606.308 549.712,603.592 L549.712,603.592 L549.712,581.248 L582.094,581.248 Z M745.516,595.066 L745.516,610.522 L745.522284,610.785864 C745.569739,614.610843 743.649644,616.454889 739.762,616.318 L739.762,616.318 L735.184,616.318 L735.184,613.336 L738.25,613.336 L738.45196,613.340844 C740.302423,613.350166 741.187103,612.354552 741.106,610.354 L741.106,610.354 L741.106,598.048 L730.438,598.048 L730.425584,598.482693 C730.088815,607.711174 725.150954,614.062277 715.612,617.536 L715.612,617.536 L715.612,614.638 L715.982822,614.445078 C722.597135,610.936238 725.945527,605.470545 726.028,598.048 L726.028,598.048 L719.77,598.048 L719.77,595.066 L745.516,595.066 Z M521.992,597.796 L521.992,601.324 L537.532,601.324 L537.532,610.858 L537.536686,611.124036 C537.561562,614.892133 535.768,616.721455 532.156,616.612 L532.156,616.612 L526.696,616.612 L526.696,613.714 L530.476,613.714 L530.674362,613.716305 C532.360047,613.702324 533.175926,612.805556 533.122,611.026 L533.122,611.026 L533.122,604.18 L521.698,604.18 L521.67113,604.488543 C521.02092,611.036448 515.443877,615.3856 504.94,617.536 L504.94,617.536 L504.94,614.89 L505.365617,614.76266 C512.819206,612.489331 516.793333,608.961778 517.288,604.18 L517.288,604.18 L506.41,604.18 L506.41,601.324 L517.54,601.324 L517.54,597.796 L521.992,597.796 Z M643.246,589.606 L643.079815,590.094704 C642.121938,592.830235 640.889333,594.991333 639.382,596.578 L639.382,596.578 L639.382,617.41 L635.224,617.41 L635.224,599.644 L634.79602,599.85232 C633.48814,600.47224 631.9648,601.0468 630.226,601.576 L630.226,601.576 L630.226,599.014 L630.63107,598.809004 C634.771023,596.661043 637.492,593.593375 638.794,589.606 L638.794,589.606 L643.246,589.606 Z M610.318,579.358 L610.318,583.474 L623.632,583.474 L623.632,594.604 L623.634551,594.869751 C623.62725,598.722717 621.6524,600.608133 617.71,600.526 L617.71,600.526 L596.5,600.526 L596.5,603.718 L596.52072,604.085857 C596.813291,610.304311 594.062385,614.731692 588.268,617.368 L588.268,617.368 L588.268,614.428 L588.547253,614.164613 C589.820818,612.934604 590.679733,611.6924 591.124,610.438 C591.628,609.122 591.88,607.204 591.88,604.684 L591.88,604.684 L591.88,583.474 L605.32,583.474 L605.32,579.358 L610.318,579.358 Z M867.484,579.442 L867.484,582.928 L877.564,582.928 L877.564,585.784 L865.384,585.784 L865.017537,586.407648 C862.926957,589.90566 860.599111,592.791778 858.034,595.066 C861.086,595.094 863.634,595.066 865.678,594.982 C867.75,594.898 869.878,594.744 872.062,594.52 C871.614,593.316 870.816,591.608 869.668,589.396 L869.668,589.396 L873.112,589.396 L873.486827,590.0484 C875.208142,593.106 876.5392,596.346533 877.48,599.77 L877.48,599.77 L873.742,599.77 L873.711667,599.651 C873.657222,599.441 873.583333,599.172667 873.49,598.846 C873.434,598.594 873.28,598.062 873.028,597.25 C872.02,597.39 870.998,597.502 869.962,597.586 L869.962,597.586 L869.962,610.9 L869.953857,611.091304 C869.915286,612.779768 870.814,613.57 872.65,613.462 C874.47,613.546 875.338,612.678 875.254,610.858 L875.254,610.858 L875.254,609.514 L878.11,609.514 L878.11,611.656 C878.166,614.82 876.57,616.374 873.322,616.318 L873.322,616.318 L871.18,616.318 L870.92086,616.321071 C867.59572,616.319024 865.9741,614.68 866.056,611.404 L866.056,611.404 L866.056,597.922 L865.145125,597.97975 C864.226375,598.03225 863.284,598.069 862.318,598.09 L862.318,598.09 L862.318,601.492 L862.339758,601.873617 C862.699986,609.339739 859.066733,614.504533 851.44,617.368 L851.44,617.368 L851.44,614.554 L851.822,614.309524 C854.328667,612.676508 856.035333,610.98 856.942,609.22 C857.904182,607.456 858.394384,604.990409 858.412607,601.823227 L858.412607,601.823227 L858.412,598.174 L853.75,598.174 L853.75,595.066 L854.266789,594.554879 C856.985792,591.817273 859.109529,588.893647 860.638,585.784 L860.638,585.784 L852.91,585.784 L852.91,582.928 L863.074,582.928 L863.074,579.442 L867.484,579.442 Z M765.466,579.358 L765.466,585.322 L770.38,585.322 L770.38,588.178 L765.55,588.178 L765.727463,588.933611 C766.760265,593.186759 768.255111,596.952889 770.212,600.232 L770.212,600.232 L770.212,604.558 L769.804133,604.021707 C767.931244,601.525102 766.4852,599.113867 765.466,596.788 L765.466,596.788 L765.466,617.326 L761.308,617.326 L761.308,598.636 L761.088844,599.216298 C759.88436,602.322844 758.109412,605.615412 755.764,609.094 L755.764,609.094 L755.764,604.558 L756.130482,603.775474 C758.300055,599.053789 759.941895,593.854632 761.056,588.178 L761.056,588.178 L756.352,588.178 L756.352,585.322 L761.308,585.322 L761.308,579.358 L765.466,579.358 Z M475.162,585.742 L475.229339,586.210942 C475.474628,587.759041 475.928182,589.156727 476.59,590.404 L476.59,590.404 L485.368,590.404 L485.57128,589.98694 C486.16096,588.71938 486.5692,587.3044 486.796,585.742 L486.796,585.742 L491.08,585.742 L490.998982,586.169207 C490.660994,587.855172 490.156,589.266769 489.484,590.404 L489.484,590.404 L497.338,590.404 L497.338,611.152 L497.344769,611.41638 C497.397559,615.07222 495.687302,616.818093 492.214,616.654 L492.214,616.654 L488.602,616.654 L488.602,613.882 L490.702,613.882 L490.896208,613.881395 C492.417616,613.844838 493.16488,613.04704 493.138,611.488 L493.138,593.176 L468.568,593.176 L468.568,617.284 L464.41,617.284 L464.41,590.404 L472.474,590.404 L472.296375,590.082875 C471.661125,588.882958 471.202333,587.436 470.92,585.742 L470.92,585.742 L475.162,585.742 Z M792.976,580.114 L792.976,583.18 L792.553013,583.342027 C790.565138,584.070276 788.382133,584.408267 786.004,584.356 L786.004,584.356 L776.638,584.356 L776.638,592.462 L794.236,592.462 L794.236,595.276 L788.02,595.276 L788.02,617.032 L783.778,617.032 L783.778,595.276 L776.638,595.276 L776.638,602.668 L776.651078,603.080513 C776.821129,610.048351 774.324769,614.726846 769.162,617.116 L769.162,617.116 L769.162,614.218 L769.363387,614.014398 C771.409629,611.868133 772.3785,608.408 772.27,603.634 L772.27,603.634 L772.27,581.5 L785.038,581.5 L785.497211,581.50443 C787.80557,581.496227 790.2985,581.03275 792.976,580.114 L792.976,580.114 Z M834.388,580.408 L834.388,583.516 L833.857905,583.629325 C831.762379,584.070698 829.965077,584.368923 828.466,584.524 C826.842,584.72 824.924,584.818 822.712,584.818 L822.712,584.818 L819.982,584.818 L819.310727,585.305142 C815.734478,587.866028 812.220235,589.831647 808.768,591.202 C813.388,591.202 817.364,591.09 820.696,590.866 C822.348,589.886 823.944,588.892 825.484,587.884 L825.484,587.884 L831.994,587.884 L831.123556,588.49884 C823.858467,593.576947 816.308615,597.516 808.474,600.316 C815.978,600.316 822.558,600.12 828.214,599.728 C827.654,598.384 826.842,596.774 825.778,594.898 L825.778,594.898 L829.516,594.898 L829.884699,595.485564 C831.814664,598.616913 833.161765,601.711059 833.926,604.768 L833.926,604.768 L829.852,604.768 L829.8184,604.6588 C829.7736,604.502 829.7288,604.3004 829.684,604.054 C829.488,603.382 829.334,602.878 829.222,602.542 C825.694,602.766 822.432,602.934 819.436,603.046 L819.436,603.046 L819.436,612.034 L819.43472,612.291352 C819.377479,615.33769 817.812427,616.876216 814.739562,616.906931 L814.739562,616.906931 L810.742,616.906 L810.742,614.05 L812.716,614.05 L812.906848,614.052755 C814.401376,614.043078 815.12176,613.27216 815.068,611.74 L815.068,611.74 L815.068,603.214 L813.68242,603.23752 C809.50174,603.30304 805.1056,603.3232 800.494,603.298 L800.494,603.298 L800.494,600.274 L801.675219,599.853254 C806.395124,598.141444 811.055385,596.083692 815.656,593.68 C811.82,593.932 807.242,594.058 801.922,594.058 L801.922,594.058 L801.922,591.16 L802.710977,590.844836 C806.636992,589.241945 810.28,587.233 813.64,584.818 L813.64,584.818 L799.99,584.818 L799.99,581.752 L821.62,581.752 L822.497333,581.75648 C826.582844,581.746027 830.5464,581.296533 834.388,580.408 L834.388,580.408 Z M454.666,581.374 L454.666,584.398 L454.07989,584.942425 C450.35323,588.353875 446.3486,591.0704 442.066,593.092 L442.066,593.092 L442.066,596.41 L458.068,596.41 L458.068,599.476 L442.066,599.476 L442.066,610.48 C442.120783,614.725652 440.08549,616.867831 435.960121,616.906536 L435.960121,616.906536 L431.062,616.906 L431.062,613.84 L434.17,613.84 L434.384667,613.84182 C436.423689,613.822873 437.416133,612.744267 437.362,610.606 L437.362,610.606 L437.362,599.476 L419.89,599.476 L419.89,596.41 L437.362,596.41 L437.362,591.916 L438.0025,591.593093 C441.612167,589.731698 444.884667,587.333333 447.82,584.398 L447.82,584.398 L423.46,584.398 L423.46,581.374 L454.666,581.374 Z M668.152,592.084 L668.152,595.066 L661.684,595.066 L661.684,611.362 L661.682871,611.631535 C661.627676,615.001755 660.018376,616.704155 656.854971,616.738735 L656.854971,616.738735 L651.31,616.738 L651.31,613.84 L654.796,613.84 L654.986915,613.839328 C656.482518,613.801696 657.21688,612.98992 657.19,611.404 L657.19,595.066 L644.506,595.066 L644.506,592.084 L668.152,592.084 Z M397.84,579.232 L397.84,583.432 L411.784,583.432 L411.784,600.484 L411.786461,600.758489 C411.778125,604.82967 409.733304,606.824174 405.652,606.742 L405.652,606.742 L397.84,606.742 L397.84,609.724 L397.833109,609.961562 C397.799203,612.375687 398.9215,613.5285 401.2,613.42 L401.2,613.42 L408.886,613.42 L409.105039,613.422197 C411.112117,613.409146 412.075103,612.456414 411.994,610.564 L411.994,610.564 L411.994,609.136 L415.438,609.136 L415.438,611.068 L415.442679,611.315048 C415.464304,614.731745 413.642744,616.385395 409.978,616.276 L409.978,616.276 L399.562,616.276 L399.296843,616.281894 L399.037542,616.281704 C395.191947,616.23322 393.322766,614.131319 393.43,609.976 L393.43,609.976 L393.43,606.742 L379.612,606.742 L379.612,583.432 L393.43,583.432 L393.43,579.232 L397.84,579.232 Z M827.584,605.272 L827.699817,605.602537 C828.905186,608.880373 831.526581,611.332194 835.564,612.958 L835.564,612.958 L835.564,615.52 C828.844,613.952 824.756,610.536 823.3,605.272 L823.3,605.272 L827.584,605.272 Z M810.658,605.272 L810.563573,605.600307 C809.030524,610.705519 804.974,614.012083 798.394,615.52 L798.394,615.52 L798.394,612.958 L798.793022,612.792666 C802.73604,611.111792 805.263032,608.604903 806.374,605.272 L806.374,605.272 L810.658,605.272 Z M853.204,608.548 L853.204,611.194 L852.61222,611.382265 C848.84034,612.543355 844.6136,613.1106 839.932,613.084 L839.932,613.084 L839.932,609.85 L840.768512,609.864097 C845.211308,609.909052 849.356471,609.470353 853.204,608.548 L853.204,608.548 Z M479.53,594.268 L479.362202,594.646538 C477.994547,597.638819 476.02048,599.76664 473.44,601.03 L473.44,601.03 L488.266,601.03 L487.933427,600.853906 C485.409976,599.468635 483.490833,597.273333 482.176,594.268 L482.176,594.268 L486.208,594.268 L486.363094,594.586719 C487.587365,597.005073 489.621667,598.844833 492.466,600.106 L492.466,600.106 L492.466,602.626 L491.927875,602.465875 C490.690625,602.086125 489.582,601.6635 488.602,601.198 L488.602,601.198 L488.602,607.12 L488.607274,607.375037 C488.631758,610.562141 487.048,612.101128 483.856,611.992 L483.856,611.992 L473.314,611.992 L473.314,601.114 L473.081136,601.230308 C472.12284,601.695538 470.842462,602.160769 469.24,602.626 L469.24,602.626 L469.24,600.106 L469.603052,599.941573 C472.352351,598.654691 474.317333,596.7635 475.498,594.268 L475.498,594.268 L479.53,594.268 Z M485.032,603.634 L476.926,603.634 L476.926,609.388 L482.764,609.388 L482.951488,609.394048 L483.130912,609.392032 C484.475584,609.345664 485.10928,608.58832 485.032,607.12 L485.032,607.12 L485.032,603.634 Z M695.662,596.41 L695.962,597.061643 C697.236,599.901214 698.172,602.946 698.77,606.196 L698.77,606.196 L694.696,606.196 L694.572237,605.42832 C694.047361,602.362568 693.164615,599.356462 691.924,596.41 L691.924,596.41 L695.662,596.41 Z M849.76,579.442 L849.564665,580.083628 C848.166343,584.549512 846.117455,588.479636 843.418,591.874 C845.126,591.93 846.722,591.846 848.206,591.622 C848.766,590.418 849.34,589.018 849.928,587.422 L849.928,587.422 L853.792,587.422 L853.545405,588.080766 C851.454725,593.540973 848.470923,598.263385 844.594,602.248 C847.422,602.276 850.11,602.024 852.658,601.492 L852.658,601.492 L852.658,604.306 L851.858286,604.466286 C850.267429,604.771429 848.728,604.984 847.24,605.104 L846.832675,605.14103 C845.176533,605.282189 843.198308,605.339846 840.898,605.314 L840.898,605.314 L840.898,602.206 L841.348516,601.703969 C843.569922,599.203656 845.32375,596.851 846.61,594.646 C845.014,594.814 842.844,594.87 840.1,594.814 L840.1,594.814 L840.1,591.874 L840.482286,591.327714 C842.992762,587.670571 844.741333,583.708667 845.728,579.442 L845.728,579.442 L849.76,579.442 Z M407.542,596.284 L397.84,596.284 L397.84,603.886 L404.518,603.886 L404.728549,603.888048 L404.931508,603.882604 C406.723974,603.799902 407.594138,602.807034 407.542,600.904 L407.542,600.904 L407.542,596.284 Z M393.43,596.284 L383.77,596.284 L383.77,603.886 L393.43,603.886 L393.43,596.284 Z M563.698,594.016 L554.08,594.016 L554.08,601.156 L563.698,601.156 L563.698,594.016 Z M577.726,594.016 L568.066,594.016 L568.066,601.156 L577.726,601.156 L577.726,594.016 Z M520.06,579.232 L519.749667,579.741833 C519.228556,580.577944 518.688,581.346 518.128,582.046 L518.128,582.046 L537.994,582.046 L537.994,585.028 L537.541979,585.522541 C534.367508,588.944847 530.976182,591.538 527.368,593.302 C530.98,594.45 535.838,595.444 541.942,596.284 L541.942,596.284 L541.942,598.804 L541.224674,598.721749 C533.152491,597.782183 527.0356,596.5916 522.874,595.15 C518.702,596.606 512.416,597.852 504.016,598.888 L504.016,598.888 L504.016,596.41 L504.742104,596.303906 C510.267535,595.482135 514.8415,594.4675 518.464,593.26 C515.86,591.972 513.228,590.054 510.568,587.506 C509,588.094 507.026,588.626 504.646,589.102 L504.646,589.102 L504.646,586.876 L505.119115,586.723586 C509.96008,585.11982 513.316375,582.622625 515.188,579.232 L515.188,579.232 L520.06,579.232 Z M730.186,579.988 L730.091575,580.428763 C728.237008,588.757473 722.934483,594.476552 714.184,597.586 L714.184,597.586 L714.184,594.814 L714.585997,594.608704 C720.565043,591.490264 724.253043,586.616696 725.65,579.988 L725.65,579.988 L730.186,579.988 Z M740.308,579.988 L740.404544,580.427313 C741.903921,586.978003 745.707739,591.773565 751.816,594.814 L751.816,594.814 L751.816,597.586 C742.884,594.45 737.536,588.584 735.772,579.988 L735.772,579.988 L740.308,579.988 Z M619.18,586.456 L596.5,586.456 L596.5,597.544 L616.366,597.544 L616.569196,597.546089 L616.764786,597.540357 C618.426929,597.456786 619.232,596.492 619.18,594.646 L619.18,594.646 L619.18,586.456 Z M407.542,586.246 L397.84,586.246 L397.84,593.47 L407.542,593.47 L407.542,586.246 Z M393.43,586.246 L383.77,586.246 L383.77,593.47 L393.43,593.47 L393.43,586.246 Z M532.534,584.86 L515.356,584.86 L514.942857,585.177143 C514.106286,585.797714 513.208,586.336 512.248,586.792 L512.248,586.792 L515.188,586.792 L515.764071,587.243562 C518.072331,589.020982 520.428308,590.452462 522.832,591.538 C526.276,589.97 529.51,587.744 532.534,584.86 L532.534,584.86 Z M643.246,579.4 L643.138157,579.774414 C641.360338,585.721376 637.070286,589.572571 630.268,591.328 L630.268,591.328 L630.268,588.766 L630.67076,588.564871 C634.918738,586.391927 637.626485,583.33697 638.794,579.4 L638.794,579.4 L643.246,579.4 Z M577.726,584.23 L568.066,584.23 L568.066,591.16 L577.726,591.16 L577.726,584.23 Z M563.698,584.23 L554.08,584.23 L554.08,591.16 L563.698,591.16 L563.698,584.23 Z M666.304,581.794 L666.304,584.776 L646.438,584.776 L646.438,581.794 L666.304,581.794 Z M483.646,579.274 L483.646,581.836 L499.858,581.836 L499.858,584.692 L462.142,584.692 L462.142,581.836 L478.648,581.836 L478.648,579.274 L483.646,579.274 Z M766,554 L766,555 L382,555 L382,554 L766,554 Z M497.008,508.392 L497.008,534.66 C497.008,536.277 496.15,537.102 494.467,537.102 L494.467,537.102 L492.784,537.102 L492.256,535.122 C492.784,535.188 493.312,535.221 493.807,535.221 C494.533,535.221 494.896,534.759 494.896,533.901 L494.896,533.901 L494.896,526.146 L491.761,526.146 C491.695,530.832 491.167,534.627 490.21,537.564 L490.21,537.564 L488.494,536.046 C489.286,533.307 489.682,529.842 489.715,525.618 L489.715,525.618 L489.715,508.392 L497.008,508.392 Z M694.645,531.723 C698.275,532.812 701.608,534.132 704.611,535.65 L704.611,535.65 L703.423,537.531 C700.189,535.815 696.856,534.429 693.457,533.439 L693.457,533.439 Z M691.213,527.4 L693.424,527.598 C693.028,531.096 692.17,533.439 690.85,534.627 C689.398,536.112 686.098,537.069 680.95,537.465 L680.95,537.465 L680.059,535.452 C684.547,535.221 687.484,534.495 688.936,533.274 C690.256,532.119 691.015,530.172 691.213,527.4 L691.213,527.4 Z M660.721,507.072 L660.721,509.217 C660.721,511.527 660.556,513.672 660.292,515.718 L660.292,515.718 L673.987,515.718 L673.987,518.028 L660.985,518.028 C663.295,525.486 667.849,531.228 674.614,535.254 L674.614,535.254 L673.129,537.168 C666.496,533.076 661.942,527.334 659.467,519.876 C657.421,527.895 652.867,533.736 645.838,537.399 L645.838,537.399 L644.353,535.419 C651.382,531.954 655.738,526.146 657.454,518.028 L657.454,518.028 L645.013,518.028 L645.013,515.718 L657.85,515.718 C658.114,513.804 658.246,511.824 658.279,509.745 L658.279,509.745 L658.279,507.072 L660.721,507.072 Z M624.256,506.808 L626.665,507.105 C626.236,509.877 625.708,512.451 625.114,514.893 L625.114,514.893 L640.558,514.893 L640.558,517.17 L624.487,517.17 C624.091,518.49 623.695,519.744 623.233,520.932 L623.233,520.932 L636.73,520.932 L636.73,522.978 C635.839,525.816 634.057,528.39 631.351,530.7 C634.024,532.284 637.291,533.736 641.119,535.056 L641.119,535.056 L639.898,537.267 C635.674,535.716 632.176,534.033 629.404,532.218 C626.698,534.132 623.332,535.848 619.339,537.399 L619.339,537.399 L618.085,535.188 C621.781,533.835 624.85,532.35 627.325,530.733 C624.751,528.753 622.936,526.608 621.847,524.298 C619.438,529.512 616.336,533.637 612.574,536.706 L612.574,536.706 L611.353,534.528 C616.171,530.304 619.702,524.529 622.012,517.17 L622.012,517.17 L613.828,517.17 L616.435,507.996 L618.778,508.392 L616.897,514.893 L622.672,514.893 C623.332,512.319 623.86,509.646 624.256,506.808 L624.256,506.808 Z M487.999,508.392 L487.999,534.627 C487.999,536.277 487.174,537.102 485.524,537.102 L485.524,537.102 L483.874,537.102 L483.346,535.122 C483.874,535.188 484.402,535.221 484.864,535.221 C485.59,535.221 485.953,534.792 485.953,533.934 L485.953,533.934 L485.953,526.113 L482.719,526.113 C482.554,530.667 481.927,534.396 480.871,537.366 L480.871,537.366 L479.155,535.848 C480.145,532.812 480.64,528.918 480.673,524.199 L480.673,524.199 L480.673,508.392 L487.999,508.392 Z M396.688,523.473 L396.688,526.707 L409.822,526.707 L409.822,529.017 L396.688,529.017 L396.688,537.333 L394.246,537.333 L394.246,529.017 L381.244,529.017 L381.244,526.707 L394.246,526.707 L394.246,523.473 L396.688,523.473 Z M528.358,506.775 C528.985,507.798 529.579,508.953 530.107,510.207 L530.107,510.207 L542.185,510.207 L542.185,512.517 L517.732,512.517 L517.732,519.876 C517.6,527.136 516.478,532.944 514.333,537.3 L514.333,537.3 L512.386,535.551 C514.234,531.789 515.224,526.575 515.29,519.876 L515.29,519.876 L515.29,510.207 L527.533,510.207 C527.005,509.151 526.411,508.161 525.751,507.237 L525.751,507.237 Z M606.403,509.019 L606.403,511.329 L600.892,511.329 L600.892,520.074 L608.119,520.074 L608.119,522.351 L600.892,522.351 L600.892,536.97 L598.483,536.97 L598.483,522.351 L588.946,522.351 C588.649,525.75 588.022,528.555 587.032,530.799 C585.778,533.571 583.699,535.716 580.795,537.234 L580.795,537.234 L579.508,535.188 C582.181,533.67 584.062,531.657 585.118,529.149 C585.811,527.235 586.273,524.991 586.537,522.351 L586.537,522.351 L578.914,522.351 L578.914,520.074 L586.669,520.074 C586.669,519.645 586.702,519.249 586.702,518.919 L586.702,518.919 L586.702,511.329 L580.696,511.329 L580.696,509.019 L606.403,509.019 Z M427.906,507.039 L427.906,510.966 C427.873,512.418 427.807,513.837 427.708,515.19 L427.708,515.19 L441.304,515.19 C441.304,524.628 440.875,530.634 440.05,533.208 C439.192,535.782 437.641,537.069 435.43,537.069 C433.813,537.069 432.46,537.003 431.338,536.937 L431.338,536.937 L430.711,534.627 C432.394,534.759 433.912,534.825 435.298,534.825 C437.146,534.693 438.235,532.812 438.499,529.248 C438.763,525.651 438.895,521.724 438.895,517.5 L438.895,517.5 L427.477,517.5 C426.949,521.658 426.025,525.123 424.672,527.961 C422.725,531.888 419.524,534.957 415.036,537.168 L415.036,537.168 L413.683,535.056 C418.105,532.812 421.207,529.842 422.923,526.113 C423.946,523.671 424.672,520.8 425.101,517.5 L425.101,517.5 L414.838,517.5 L414.838,515.19 L425.365,515.19 C425.464,513.804 425.53,512.418 425.563,510.966 L425.563,510.966 L425.563,507.039 L427.906,507.039 Z M462.82,522.021 L462.82,525.651 L466.78,525.651 L466.78,527.73 L462.82,527.73 L462.82,534.429 C464.404,534.066 465.757,533.67 466.912,533.274 L466.912,533.274 L467.308,535.353 C465.394,535.98 463.084,536.541 460.411,537.003 L460.411,537.003 L459.784,534.957 C460.378,534.693 460.708,534.231 460.708,533.505 L460.708,533.505 L460.708,522.021 L462.82,522.021 Z M573.238,508.359 L573.238,533.076 C573.238,535.386 572.083,536.541 569.773,536.541 L569.773,536.541 L565.978,536.541 L565.351,534.198 C566.671,534.264 567.892,534.33 569.014,534.33 C570.202,534.33 570.829,533.637 570.829,532.251 L570.829,532.251 L570.829,526.509 L561.853,526.509 L561.853,536.178 L559.411,536.178 L559.411,526.509 L550.897,526.509 C550.534,530.733 549.313,534.231 547.201,537.003 L547.201,537.003 L545.386,535.386 C547.498,532.449 548.587,528.72 548.653,524.199 L548.653,524.199 L548.653,508.359 L573.238,508.359 Z M501.892,506.808 L504.103,507.105 C503.872,508.128 503.575,509.085 503.179,510.009 L503.179,510.009 L508.03,510.009 C507.832,515.52 507.469,518.787 507.007,519.777 C506.479,520.767 505.555,521.295 504.235,521.295 L504.235,521.295 L503.212,521.295 L502.585,519.381 C503.212,519.381 503.773,519.414 504.235,519.414 C504.763,519.414 505.126,519.117 505.324,518.589 C505.522,517.995 505.72,515.85 505.852,512.088 L505.852,512.088 L500.77,512.088 L500.77,523.176 L509.02,523.176 C508.987,530.205 508.591,534.297 507.865,535.419 C507.139,536.475 505.951,537.003 504.268,537.003 L504.268,537.003 L502.717,537.003 L502.057,534.891 C502.948,534.924 503.707,534.957 504.301,534.957 C505.192,534.957 505.819,534.594 506.215,533.934 C506.644,533.142 506.875,530.238 506.875,525.222 L506.875,525.222 L498.79,525.222 L498.79,510.009 L501.034,510.009 C501.43,508.953 501.694,507.897 501.892,506.808 L501.892,506.808 Z M470.278,522.021 L470.278,525.519 C472.258,525.123 474.007,524.562 475.591,523.77 L475.591,523.77 L476.35,525.783 C474.568,526.575 472.555,527.169 470.278,527.565 L470.278,527.565 L470.278,533.703 C470.278,534.363 470.575,534.726 471.202,534.726 L471.202,534.726 L472.918,534.726 C473.38,534.726 473.743,534.561 473.941,534.231 C474.205,533.802 474.37,532.548 474.469,530.469 L474.469,530.469 L476.515,531.129 C476.317,533.835 475.987,535.518 475.492,536.112 C474.997,536.607 474.271,536.871 473.314,536.871 L473.314,536.871 L470.509,536.871 C468.925,536.871 468.133,535.947 468.133,534.165 L468.133,534.165 L468.133,522.021 L470.278,522.021 Z M458.827,532.68 L458.827,534.891 C455.296,535.617 451.303,536.178 446.815,536.64 L446.815,536.64 L446.518,534.33 C451.204,533.901 455.296,533.34 458.827,532.68 L458.827,532.68 Z M537.466,516.18 L539.809,516.807 C538.423,523.077 536.74,528.687 534.694,533.571 L534.694,533.571 L541.657,533.571 L541.657,535.881 L518.359,535.881 L518.359,533.571 L532.12,533.571 C534.166,528.885 535.948,523.11 537.466,516.18 L537.466,516.18 Z M692.665,506.676 C693.061,507.336 693.49,508.062 693.886,508.92 L693.886,508.92 L705.898,508.92 L705.898,514.266 L703.588,514.266 L703.588,510.933 L697.45,510.933 L697.45,512.781 L702.367,512.781 L702.367,514.596 L697.45,514.596 L697.45,516.576 L701.74,516.576 L701.74,518.325 L697.45,518.325 L697.45,520.305 L706.525,520.305 L706.525,522.219 L699.166,522.219 C700.981,523.671 703.687,524.793 707.251,525.651 L707.251,525.651 L706.294,527.664 C704.512,527.103 702.928,526.476 701.575,525.816 L701.575,525.816 L701.575,532.152 L699.265,532.152 L699.265,526.344 L686.065,526.344 L686.065,532.152 L683.755,532.152 L683.755,525.618 C682.303,526.377 680.686,527.07 678.871,527.73 L678.871,527.73 L677.65,525.75 C681.214,524.793 683.92,523.605 685.702,522.219 L685.702,522.219 L678.541,522.219 L678.541,520.305 L687.517,520.305 L687.517,518.325 L683.293,518.325 L683.293,516.576 L687.517,516.576 L687.517,514.596 L682.633,514.596 L682.633,512.781 L687.517,512.781 L687.517,510.933 L681.412,510.933 L681.412,514.266 L679.102,514.266 L679.102,508.92 L691.411,508.92 C691.015,508.26 690.586,507.633 690.157,507.105 L690.157,507.105 Z M505.192,528.753 L505.192,530.832 L498.13,530.832 L498.13,528.753 L505.192,528.753 Z M521.956,517.797 C523.276,521.295 524.464,525.354 525.52,529.908 L525.52,529.908 L523.276,530.469 C522.385,526.311 521.263,522.285 519.877,518.457 L519.877,518.457 Z M450.841,506.841 L453.019,507.534 C452.788,508.161 452.557,508.755 452.293,509.349 L452.293,509.349 L458.167,509.349 L458.167,510.966 C457.309,512.814 456.418,514.365 455.56,515.652 L455.56,515.652 L458.629,515.652 L458.629,530.37 L448.003,530.37 L448.003,516.081 C447.574,516.543 447.145,517.005 446.683,517.434 L446.683,517.434 L446.122,514.959 C448.234,512.847 449.818,510.141 450.841,506.841 L450.841,506.841 Z M429.688,521.79 C432.064,524.397 433.879,526.674 435.166,528.588 L435.166,528.588 L433.087,530.04 C431.767,527.928 430.018,525.552 427.774,522.978 L427.774,522.978 Z M634.321,523.11 L623.629,523.11 C624.751,525.354 626.632,527.433 629.272,529.347 C631.714,527.433 633.397,525.354 634.321,523.11 L634.321,523.11 Z M528.325,515.454 C529.447,519.084 530.47,523.275 531.394,527.961 L531.394,527.961 L529.117,528.489 C528.391,524.199 527.434,520.074 526.246,516.114 L526.246,516.114 Z M456.649,523.671 L454.174,523.671 L454.174,528.423 L456.649,528.423 L456.649,523.671 Z M452.392,523.671 L449.983,523.671 L449.983,528.423 L452.392,528.423 L452.392,523.671 Z M735,511.44 C736.7,511.44 737.98,512.18 738.86,513.7 C739.62,514.98 740,516.7 740,518.86 C740,521.02 739.62,522.74 738.86,524.02 C737.98,525.52 736.7,526.28 735,526.28 C733.28,526.28 732,525.52 731.14,524.02 C730.38,522.74 730,521.02 730,518.86 C730,516.7 730.38,514.98 731.14,513.7 C732,512.18 733.28,511.44 735,511.44 Z M759,511.44 C760.7,511.44 761.98,512.18 762.86,513.7 C763.62,514.98 764,516.7 764,518.86 C764,521.02 763.62,522.74 762.86,524.02 C761.98,525.52 760.7,526.28 759,526.28 C757.28,526.28 756,525.52 755.14,524.02 C754.38,522.74 754,521.02 754,518.86 C754,516.7 754.38,514.98 755.14,513.7 C756,512.18 757.28,511.44 759,511.44 Z M747.2,511.44 C748.52,511.44 749.6,511.82 750.46,512.58 C751.3,513.34 751.74,514.36 751.74,515.6 C751.74,516.84 751.26,517.96 750.34,518.96 C749.84,519.48 748.86,520.26 747.38,521.26 C745.56,522.48 744.52,523.58 744.26,524.54 L744.26,524.54 L751.76,524.54 L751.76,526 L742.24,526 C742.24,524.7 742.7,523.52 743.66,522.46 C744.22,521.82 745.24,520.96 746.76,519.92 C747.88,519.12 748.62,518.54 749,518.14 C749.72,517.36 750.1,516.5 750.1,515.58 C750.1,514.7 749.84,514.04 749.32,513.56 C748.8,513.08 748.06,512.84 747.14,512.84 C746.16,512.84 745.4,513.16 744.88,513.84 C744.32,514.48 744.02,515.44 744,516.7 L744,516.7 L742.36,516.7 C742.36,515.1 742.82,513.82 743.7,512.88 C744.58,511.92 745.76,511.44 747.2,511.44 Z M723.2,511.44 C724.52,511.44 725.6,511.82 726.46,512.58 C727.3,513.34 727.74,514.36 727.74,515.6 C727.74,516.84 727.26,517.96 726.34,518.96 C725.84,519.48 724.86,520.26 723.38,521.26 C721.56,522.48 720.52,523.58 720.26,524.54 L720.26,524.54 L727.76,524.54 L727.76,526 L718.24,526 C718.24,524.7 718.7,523.52 719.66,522.46 C720.22,521.82 721.24,520.96 722.76,519.92 C723.88,519.12 724.62,518.54 725,518.14 C725.72,517.36 726.1,516.5 726.1,515.58 C726.1,514.7 725.84,514.04 725.32,513.56 C724.8,513.08 724.06,512.84 723.14,512.84 C722.16,512.84 721.4,513.16 720.88,513.84 C720.32,514.48 720.02,515.44 720,516.7 L720,516.7 L718.36,516.7 C718.36,515.1 718.82,513.82 719.7,512.88 C720.58,511.92 721.76,511.44 723.2,511.44 Z M759,512.84 C757.72,512.84 756.8,513.52 756.24,514.9 C755.84,515.86 755.64,517.18 755.64,518.86 C755.64,520.52 755.84,521.84 756.24,522.82 C756.8,524.18 757.72,524.88 759,524.88 C760.28,524.88 761.2,524.18 761.76,522.82 C762.16,521.84 762.38,520.52 762.38,518.86 C762.38,517.18 762.16,515.86 761.76,514.9 C761.2,513.52 760.28,512.84 759,512.84 Z M735,512.84 C733.72,512.84 732.8,513.52 732.24,514.9 C731.84,515.86 731.64,517.18 731.64,518.86 C731.64,520.52 731.84,521.84 732.24,522.82 C732.8,524.18 733.72,524.88 735,524.88 C736.28,524.88 737.2,524.18 737.76,522.82 C738.16,521.84 738.38,520.52 738.38,518.86 C738.38,517.18 738.16,515.86 737.76,514.9 C737.2,513.52 736.28,512.84 735,512.84 Z M696.724,522.219 L688.177,522.219 C687.451,523.011 686.626,523.737 685.669,524.43 L685.669,524.43 L699.232,524.43 C698.209,523.704 697.384,522.978 696.724,522.219 L696.724,522.219 Z M559.411,518.556 L551.029,518.556 L551.029,524.331 L559.411,524.331 L559.411,518.556 Z M570.829,518.556 L561.853,518.556 L561.853,524.331 L570.829,524.331 L570.829,518.556 Z M389.824,506.973 L391.837,507.897 C390.847,509.778 389.626,511.56 388.108,513.21 L388.108,513.21 L388.108,524.133 L385.798,524.133 L385.798,515.454 C384.511,516.576 383.092,517.665 381.541,518.688 L381.541,518.688 L380.782,516.246 C384.907,513.54 387.91,510.471 389.824,506.973 L389.824,506.973 Z M494.896,518.061 L491.761,518.061 L491.761,524.1 L494.896,524.1 L494.896,518.061 Z M485.953,518.061 L482.752,518.061 L482.752,524.067 L485.953,524.067 L485.953,518.061 Z M398.701,507.501 L398.701,514.002 C402.067,512.352 404.839,510.504 407.017,508.524 L407.017,508.524 L408.634,510.174 C405.796,512.583 402.496,514.695 398.701,516.51 L398.701,516.51 L398.701,519.645 C398.701,520.404 399.163,520.8 400.087,520.8 L400.087,520.8 L405.037,520.8 C405.895,520.8 406.522,520.635 406.885,520.305 C407.347,519.843 407.677,518.523 407.842,516.378 L407.842,516.378 L410.086,517.104 C409.822,519.876 409.294,521.592 408.568,522.186 C407.908,522.714 406.852,522.978 405.466,522.978 L405.466,522.978 L399.394,522.978 C397.414,522.978 396.424,522.021 396.424,520.107 L396.424,520.107 L396.424,517.533 C394.84,518.193 393.223,518.787 391.573,519.381 L391.573,519.381 L390.253,517.401 C392.497,516.675 394.543,515.883 396.424,515.058 L396.424,515.058 L396.424,507.501 L398.701,507.501 Z M456.649,517.632 L454.174,517.632 L454.174,521.988 L456.649,521.988 L456.649,517.632 Z M452.392,517.632 L449.983,517.632 L449.983,521.988 L452.392,521.988 L452.392,517.632 Z M474.37,508.26 L474.37,520.536 L460.642,520.536 L460.642,508.26 L474.37,508.26 Z M695.14,518.325 L689.86,518.325 L689.86,520.305 L695.14,520.305 L695.14,518.325 Z M598.483,511.329 L589.144,511.329 L589.144,518.919 C589.144,519.315 589.111,519.711 589.111,520.074 L589.111,520.074 L598.483,520.074 L598.483,511.329 Z M472.225,515.388 L462.82,515.388 L462.82,518.589 L472.225,518.589 L472.225,515.388 Z M502.519,513.309 C503.509,514.695 504.301,515.883 504.829,516.873 L504.829,516.873 L503.509,517.83 C502.915,516.708 502.156,515.487 501.166,514.167 L501.166,514.167 Z M695.14,514.596 L689.86,514.596 L689.86,516.576 L695.14,516.576 L695.14,514.596 Z M559.411,510.669 L551.029,510.669 L551.029,516.345 L559.411,516.345 L559.411,510.669 Z M570.829,510.669 L561.853,510.669 L561.853,516.345 L570.829,516.345 L570.829,510.669 Z M485.953,510.405 L482.752,510.405 L482.752,516.015 L485.953,516.015 L485.953,510.405 Z M494.896,510.405 L491.761,510.405 L491.761,516.015 L494.896,516.015 L494.896,510.405 Z M455.89,511.263 L451.369,511.263 C450.478,512.913 449.488,514.365 448.366,515.652 L448.366,515.652 L453.019,515.652 C454.009,514.398 454.966,512.946 455.89,511.263 L455.89,511.263 Z M418.072,507.864 C419.986,509.844 421.471,511.593 422.527,513.111 L422.527,513.111 L420.679,514.398 C419.524,512.748 418.039,510.999 416.257,509.151 L416.257,509.151 Z M632.209,507.072 C634.585,508.887 636.532,510.702 638.116,512.517 L638.116,512.517 L636.433,514.2 C635.047,512.451 633.1,510.603 630.625,508.623 L630.625,508.623 Z M472.225,510.207 L462.82,510.207 L462.82,513.474 L472.225,513.474 L472.225,510.207 Z M695.14,510.933 L689.86,510.933 L689.86,512.781 L695.14,512.781 L695.14,510.933 Z M472.065469,249.327595 L154.327162,508.629418 L65.948293,445.215459 L140.847,457.975 L156.910802,412.826636 L472.065469,249.327595 Z M463.933,254.672 L157.72,413.533 L141.508304,459.103055 L70.053,446.929 L154.288,507.37 L463.933,254.672 Z" id="形状结合"></path>
        </g>
    </g>
</svg>