<?xml version="1.0" encoding="UTF-8"?>
<svg width="90px" height="35px" viewBox="0 0 90 35" version="1.1" xmlns="http://www.w3.org/2000/svg" xmlns:xlink="http://www.w3.org/1999/xlink">
    <!-- Generator: Sketch 63.1 (92452) - https://sketch.com -->
    <title>资源 1</title>
    <desc>Created with Sketch.</desc>
    <defs>
        <linearGradient x1="8.82823872%" y1="65.7879967%" x2="94.4420184%" y2="30.3185577%" id="linearGradient-1">
            <stop stop-color="#D70B17" offset="0%"></stop>
            <stop stop-color="#B21119" offset="100%"></stop>
        </linearGradient>
    </defs>
    <g id="页面-1" stroke="none" stroke-width="1" fill="none" fill-rule="evenodd">
        <g id="P3-登录" transform="translate(-68.000000, -60.000000)" fill-rule="nonzero">
            <g id="资源-1" transform="translate(68.000000, 60.000000)">
                <polygon id="路径" fill="url(#linearGradient-1)" points="0 16.6780809 6.40308103 17.7494959 7.81513828 13.8513868 35 0 7.55191655 22"></polygon>
                <polygon id="路径" fill="#FFFFFF" points="9 23.0032967 33 3 18.5199134 23.523117 25.524137 35"></polygon>
                <path d="M36,14 L37.430212,14 L37.430212,19.7889165 C37.9013545,19.2213757 38.26649,18.7705777 38.5256184,18.4365226 L42.0176678,14 L43.6678445,14 L39.6969965,18.8996712 L44,25 L42.3215548,25 L38.7835689,19.8877215 L37.4372792,21.2930468 L37.4372792,24.9982356 L36,24.9982356 L36,14 Z" id="路径" fill="#FFFFFF"></path>
                <path d="M45.546875,24.2573477 C45.1822917,23.7615692 45,23.0162016 45,22.0212449 L45,17 L46.2179688,17 L46.2179688,21.948153 C46.2179688,22.6280778 46.33125,23.1232898 46.5578125,23.4337888 C46.784375,23.7442878 47.1169271,23.8978375 47.5554687,23.8944378 C47.9604884,23.8927851 48.3572743,23.7698751 48.7023437,23.5391771 C49.077318,23.294427 49.4145217,22.9869608 49.7015625,22.6280778 L49.7015625,17 L50.9398438,17 L50.9398438,22.8847495 C50.9398438,23.4309557 50.9598958,24.0870832 51,24.8531319 L49.8898437,24.8531319 C49.8585937,24.7026985 49.8289062,24.50807 49.8023437,24.2717961 C49.7757812,24.0355222 49.7554687,23.8315448 49.7421875,23.6607137 C49.3972049,24.0389967 49.0079185,24.3661922 48.584375,24.6338561 C48.1633375,24.8844792 47.6892091,25.0104972 47.209375,24.9993157 C46.4671875,24.9993157 45.9130208,24.751993 45.546875,24.2573477 Z" id="路径" fill="#FFFFFF"></path>
                <path d="M53.0539203,18.1575189 C53.0539203,17.4216544 53.0359469,16.7539988 53,16.1545523 L54.1440479,16.1545523 C54.1706173,16.3204048 54.1966658,16.527579 54.2221933,16.7760748 C54.2448554,17.0248536 54.259703,17.2269333 54.2690805,17.383163 C54.6008834,16.9866627 54.9854537,16.6463741 55.4100026,16.3736135 C55.8389805,16.1166973 56.3230237,15.9880719 56.8127116,16.0008698 C57.5311279,16.0008698 58.07528,16.2530449 58.445168,16.7573951 C58.815056,17.2617453 59,18.0015722 59,18.9768757 L59,24 L57.7582704,24 L57.7582704,19.0651794 C57.7582704,17.7587369 57.3154467,17.1052326 56.4297994,17.1046666 C56.0309549,17.1057863 55.6408404,17.2316509 55.3060693,17.4672214 C54.9270919,17.7307943 54.5849616,18.0522025 54.2901797,18.421581 L54.2901797,24 L53.0539203,24 L53.0539203,18.1575189 Z" id="路径" fill="#FFFFFF"></path>
                <path d="M61.0595,18.9861973 C61.0595,18.3128757 61.0396667,17.7007152 61,17.1497155 L62.288,17.1497155 C62.3539167,17.5062123 62.3967917,17.8169761 62.416625,18.0820069 C62.7509718,17.7641838 63.1378125,17.4998352 63.562,17.2993119 C63.9903527,17.0985121 64.4628174,16.9960045 64.941,17.0001192 C65.4730963,16.996188 65.99591,17.1318066 66.45125,17.3918799 C66.9115,17.6530537 67.2845417,18.0646504 67.570375,18.62667 C67.8562083,19.1886896 67.9994167,19.9049891 68,20.7755685 C68,21.6489029 67.8480417,22.3977114 67.544125,23.021994 C67.2729929,23.6092608 66.8215777,24.1061922 66.24825,24.448532 C65.68825,24.7758257 65.0287917,24.9394726 64.269875,24.9394726 C63.9467664,24.9395128 63.6244182,24.9098951 63.307375,24.8510372 C63.0166621,24.7987553 62.7316662,24.7212881 62.456,24.6196174 L62.456,27.8512301 L61.06125,28 L61.0595,18.9861973 Z M65.9315,23.1186944 C66.3509167,22.5919388 66.560625,21.8257738 66.560625,20.8201995 C66.560625,19.8565012 66.3797917,19.1578337 66.018125,18.724197 C65.6809737,18.3006161 65.1474557,18.0575764 64.586625,18.0720889 C63.8230417,18.0720889 63.11225,18.4026887 62.45425,19.0638882 L62.45425,23.5831871 C62.6966517,23.692799 62.9522834,23.774119 63.2155,23.8253514 C63.4953898,23.8813171 63.7807847,23.9090227 64.066875,23.9080286 C64.8905417,23.9102053 65.5120833,23.6479295 65.9315,23.1211739 L65.9315,23.1186944 Z" id="形状" fill="#FFFFFF"></path>
                <path d="M75,21.0475203 L69.4512195,21.0475203 C69.4614035,22.0096465 69.6974326,22.7322139 70.1593068,23.2152224 C70.621181,23.698231 71.2879332,23.9386236 72.1595635,23.9364003 C72.9708671,23.9340093 73.7715235,23.7648779 74.5039795,23.4411637 L74.8373556,24.3891166 C74.4152013,24.5867032 73.969839,24.7383377 73.5101412,24.8409991 C72.9757088,24.9531201 72.4288754,25.0062913 71.8810013,24.9994081 C71.050706,24.9994081 70.3453145,24.8437782 69.7648267,24.5325184 C69.1851698,24.22258 68.725021,23.7516077 68.449294,23.1860418 C68.1497647,22.6002064 68,21.8954253 68,21.0716985 C68,20.2246272 68.1545571,19.4945562 68.4636714,18.8814855 C68.7386303,18.3070164 69.1895457,17.8202224 69.7603338,17.4816502 C70.3363563,17.1556444 71.0006154,16.9887678 71.6752246,17.000587 C72.4186564,17.000587 73.0389816,17.1656659 73.5362003,17.4958236 C74.0313417,17.8231476 74.4144254,18.2758343 74.6396662,18.7997798 C74.8816322,19.3559937 75.003746,19.9508193 74.9991014,20.5506162 L75,21.0475203 Z M73.5685494,20.1145746 C73.5164313,19.4059027 73.3217373,18.8731482 72.9844673,18.5163111 C72.6471973,18.159474 72.1943089,17.9813333 71.6258023,17.9818891 C71.0981269,17.9684518 70.5896157,18.1657979 70.2293967,18.5238147 C69.8603766,18.8856542 69.6207531,19.4159075 69.5105263,20.1145746 L73.5685494,20.1145746 Z" id="形状" fill="#FFFFFF"></path>
                <path d="M76.0538852,18.1575923 C76.0538852,17.421737 76.0359235,16.7540899 76,16.1546508 L77.1433032,16.1546508 C77.1706363,16.3244636 77.1948455,16.5273898 77.2213977,16.7761655 C77.2479498,17.0249412 77.259664,17.2270184 77.2682544,17.3832461 C77.5998412,16.9867508 77.9841612,16.6464665 78.4084338,16.3737093 C78.8382834,16.1160644 79.323449,15.9874167 79.8141344,16.0009703 C80.5315624,16.0009703 81.0753603,16.2531422 81.4455281,16.7574861 C81.8156959,17.26183 82.0005195,18.0016475 82,18.9769388 L82,24 L80.7551729,24 L80.7551729,19.0652414 C80.7551729,17.7588153 80.3126375,17.1053192 79.4275667,17.1047532 C79.0289818,17.1058729 78.6391213,17.2317359 78.3045681,17.4673034 C77.9258374,17.730873 77.5839299,18.0522773 77.2893399,18.4216511 L77.2893399,24 L76.0538852,24 L76.0538852,18.1575923 Z" id="路径" fill="#FFFFFF"></path>
                <path d="M84.8308631,27.8072035 C84.4018681,27.6901011 83.9827815,27.542535 83.5771578,27.3657565 L83.9145597,26.3547272 C84.7654752,26.7531868 85.5966289,26.9524166 86.4080209,26.9524166 C87.1054926,26.9524166 87.6384772,26.7779872 88.0069747,26.4291284 C88.3754722,26.0802695 88.5579773,25.5073805 88.55449,24.7104612 L88.55449,23.8011136 C88.3516791,24.0046598 88.1321588,24.1926301 87.8979948,24.3632558 C87.6575959,24.5313889 87.3934583,24.666635 87.1133391,24.7650221 C86.7781882,24.8802896 86.4235926,24.9363277 86.0671316,24.930358 C85.5266712,24.9367533 84.9945199,24.8038921 84.5274629,24.545952 C84.0671316,24.288579 83.6980529,23.8826793 83.4202267,23.3282528 C83.1424005,22.7738262 83.0023249,22.0694951 83,21.2152594 C83,20.3505524 83.1476315,19.6015806 83.4428945,18.9683439 C83.7052277,18.3720859 84.1497585,17.8639193 84.7192677,17.5092542 C85.2743389,17.1703156 85.9325777,17.0005707 86.6939843,17.0000096 C87.0707611,16.9992188 87.4458993,17.0470543 87.8090671,17.1422084 C88.1345264,17.224534 88.446406,17.3491668 88.7358326,17.512561 L88.9537925,17.1496486 L90,17.1496486 C89.9598954,17.7095863 89.9398431,18.2766886 89.9398431,18.8509554 L89.9398431,24.7956092 C89.9398431,25.4883669 89.7945365,26.0744828 89.5039233,26.553957 C89.2229096,27.024207 88.7970269,27.4017812 88.2833479,27.6360808 C87.712586,27.8884002 87.0881704,28.0125854 86.4585876,27.9989931 C85.9091846,28.0082496 85.3611678,27.9436785 84.8308631,27.8072035 L84.8308631,27.8072035 Z M87.5937228,23.5390561 C87.9525507,23.3402511 88.2761777,23.0891808 88.5527463,22.7950443 L88.5527463,18.4739895 C88.0178336,18.1748566 87.4099603,18.0130239 86.7890148,18.0044354 C86.3450635,17.9948377 85.9095838,18.120598 85.5466434,18.3632144 C85.1932578,18.6040537 84.920372,18.9622816 84.7279861,19.437898 C84.5356001,19.9135144 84.4391165,20.4949458 84.4385353,21.1821922 C84.4385353,22.1124825 84.617553,22.7911865 84.9755885,23.2183044 C85.301762,23.630776 85.8173413,23.8692132 86.3609416,23.8589811 C86.7944713,23.8614526 87.2203605,23.7507715 87.5919791,23.5390561 L87.5937228,23.5390561 Z" id="形状" fill="#FFFFFF"></path>
            </g>
        </g>
    </g>
</svg>