<?xml version="1.0" standalone="no"?><!DOCTYPE svg PUBLIC "-//W3C//DTD SVG 1.1//EN" "http://www.w3.org/Graphics/SVG/1.1/DTD/svg11.dtd"><svg t="1585242683330" class="icon" viewBox="0 0 1024 1024" version="1.1" xmlns="http://www.w3.org/2000/svg" p-id="4853" xmlns:xlink="http://www.w3.org/1999/xlink" width="200" height="200"><defs><style type="text/css"></style></defs><path d="M976.979514 851.392047L839.326739 646.090319c-5.566053 2.354869-10.061711 5.351974-12.630659 9.419475-14.985528 22.478291 18.410791 84.989349-0.642237 104.042377-19.053028 19.053028-81.564086-14.55737-104.042377 0.642237-22.264212 14.985528-15.199607 85.631586-40.246846 95.907377-17.126317 7.064606-43.672109-16.912238-67.434874-30.827371l124.593958 185.820542c6.20829 9.205396 16.912238 13.915133 27.830265 12.41658 10.918027-1.498553 19.909344-9.205396 23.334608-19.695265l30.399213-96.335535c4.0675-12.844738 16.48408-21.193818 29.756976-19.909343l100.617114 8.349079c10.918027 0.856316 21.407897-4.495658 27.188029-14.129211 5.566053-9.419475 5.137895-21.407897-1.070395-30.399214zM341.164985 856.101785c-25.047239-10.489869-17.982633-80.921849-40.246845-95.907377-22.478291-14.985528-84.989349 18.410791-104.042378-0.642237-19.053028-19.053028 14.55737-81.564086-0.642237-104.042377-2.568948-3.853421-6.850527-6.636448-11.988422-9.205396l-137.652775 205.087649c-6.20829 9.205396-6.422369 20.979739-0.856316 30.613293s16.055922 14.985528 27.188029 14.129211l100.617114-8.349079c13.272896-1.070395 25.689476 7.064606 29.756976 19.909343l30.399213 96.335535c3.425263 10.489869 12.41658 18.196712 23.334608 19.695265 10.918027 1.498553 21.836055-3.211184 27.830265-12.41658l125.236195-186.462779c-24.190923 13.272896-51.593031 38.320135-68.933427 31.255529z" fill="#FF4C5B" p-id="4854"></path><path d="M956.642012 444.856091c0 27.402108-68.077111 47.953688-73.215006 74.071322-5.351974 26.759871 49.66632 71.716454 39.39053 96.335535-10.489869 25.047239-80.921849 17.982633-95.907377 40.246846-14.985528 22.478291 18.410791 84.989349-0.642237 104.042377-19.053028 19.053028-81.564086-14.55737-104.042377 0.642237-22.264212 14.985528-15.199607 85.631586-40.246846 95.907377-24.619081 10.27579-69.575664-44.742504-96.335535-39.39053-25.903555 5.137895-46.455136 73.000927-74.071322 73.000927-27.616187 0-47.953688-68.077111-74.071322-73.000927-26.759871-5.351974-71.716454 49.452241-96.335535 39.39053-25.047239-10.489869-17.982633-80.921849-40.246845-95.907377-22.478291-14.985528-84.989349 18.410791-104.042378-0.642237-19.053028-19.053028 14.55737-81.564086-0.642237-104.042377-14.985528-22.264212-85.631586-15.199607-95.907376-40.246846-10.27579-24.619081 44.742504-69.575664 39.390529-96.335535-5.137895-25.903555-73.215006-46.455136-73.215006-74.071322 0-27.616187 68.077111-47.953688 73.215006-74.071322 5.351974-26.759871-49.66632-71.716454-39.390529-96.335535 10.489869-25.047239 81.135928-17.982633 95.907376-40.246845 14.985528-22.478291-18.410791-84.989349 0.642237-104.042378 19.053028-19.053028 81.564086 14.343291 104.042378-0.642237 22.264212-14.985528 15.199607-85.631586 40.246845-95.907376 24.619081-10.27579 69.575664 44.742504 96.335535 39.390529C463.832233 68.077111 484.383813 0 511.785921 0c27.616187 0 47.953688 68.077111 74.071322 73.215006 26.759871 5.351974 71.716454-49.66632 96.335535-39.390529 25.047239 10.489869 17.982633 80.921849 40.246845 95.907376 22.478291 14.985528 84.989349-18.410791 104.042378 0.642237 19.053028 19.053028-14.343291 81.564086 0.642237 104.042378 14.985528 22.264212 85.631586 15.199607 95.907377 40.246845 10.27579 24.619081-44.742504 69.575664-39.39053 96.335535 5.137895 25.903555 73.000927 46.455136 73.000927 73.857243z" fill="#FFBB33" p-id="4855"></path><path d="M826.482001 130.37409c-19.053028-19.053028-81.564086 14.55737-104.042378-0.642237-22.264212-14.985528-15.199607-85.631586-40.246845-95.907376-24.619081-10.27579-69.575664 44.742504-96.335535 39.390529C559.739609 68.077111 539.402108 0 511.785921 0c-27.616187 0-47.953688 68.077111-74.071322 73.215006-26.759871 5.351974-71.716454-49.66632-96.335535-39.390529-25.047239 10.489869-17.982633 80.921849-40.246845 95.907376-22.478291 14.985528-84.989349-18.410791-104.042378 0.642237-19.053028 19.053028 14.343291 81.564086-0.642237 104.042378-14.985528 22.264212-85.631586 15.199607-95.907376 40.246845-10.27579 24.619081 44.742504 69.575664 39.390529 96.335535-4.923816 25.903555-73.000927 46.455136-73.000927 73.857243 0 27.616187 68.077111 47.953688 73.215006 74.071322 5.351974 26.759871-49.66632 71.716454-39.39053 96.335535 10.489869 25.047239 81.135928 17.982633 95.907377 40.246846 14.985528 22.478291-18.410791 84.989349 0.642237 104.042377 0.642237 0.642237 1.284474 1.070395 1.926711 1.498553L827.766475 132.300801c-0.428158-0.642237-0.856316-1.498553-1.284474-1.926711z" fill="#FDD835" p-id="4856"></path><path d="M511.785921 444.856091m-300.566868 0a300.566868 300.566868 0 1 0 601.133736 0 300.566868 300.566868 0 1 0-601.133736 0Z" fill="#FFEE58" p-id="4857"></path><path d="M511.785921 144.289223c-166.125278 0-300.566868 134.65567-300.566868 300.566868 0 82.634481 33.396319 157.562119 87.344218 211.724097L723.724097 231.633441c-54.376057-53.947899-129.303695-87.344218-211.938176-87.344218z" fill="#FFF59D" p-id="4858"></path><path d="M511.785921 444.856091m-196.096333 0a196.096333 196.096333 0 1 0 392.192666 0 196.096333 196.096333 0 1 0-392.192666 0Z" fill="#FFFFFF" p-id="4859"></path></svg>