<?xml version="1.0" encoding="UTF-8"?>
<svg width="243px" height="165px" viewBox="0 0 243 165" version="1.1" xmlns="http://www.w3.org/2000/svg" xmlns:xlink="http://www.w3.org/1999/xlink">
    <!-- Generator: Sketch 63.1 (92452) - https://sketch.com -->
    <title>编组</title>
    <desc>Created with Sketch.</desc>
    <g id="页面-1" stroke="none" stroke-width="1" fill="none" fill-rule="evenodd">
        <g id="P3-未配置" transform="translate(-733.000000, -391.000000)" stroke="#979797" stroke-width="2">
            <g id="编组" transform="translate(734.000000, 392.000000)">
                <path d="M171,140 L10,140 C4.4771525,140 6.76353751e-16,135.522847 0,130 L0,10 C-6.76353751e-16,4.4771525 4.4771525,-4.31453989e-15 10,0 L205,0 C210.522847,-1.01453063e-15 215,4.4771525 215,10 L215,90 L215,90" id="路径"></path>
                <path d="M197.989455,112.74256 C206.113849,108.175908 216.545629,109.308715 223.404198,116.167284 C229.450987,122.214073 231.047204,131.038281 228.210871,138.609997 L239.539694,149.83853 C241.501029,151.782399 241.515188,154.948192 239.571319,156.909528 L239.539694,156.941153 L239.539694,156.941153 L235.647359,160.798826 C233.698418,162.730411 230.556928,162.730411 228.607987,160.798826 L217.90678,150.192672 C209.886695,154.328953 199.837278,153.074192 193.167284,146.404198 C186.30846,139.545374 185.175823,129.113072 189.74307,120.988548 L189.74307,120.988548 L207.541916,138.788347 L207.636123,138.871535 C208.028414,139.17656 208.595645,139.148831 208.956129,138.788347 L208.956129,138.788347 L215.788347,131.956129 L215.871535,131.861922 C216.17656,131.469631 216.148831,130.9024 215.788347,130.541916 L215.788347,130.541916 Z" id="形状结合"></path>
                <path d="M133,102.991143 C127.588359,94.5706737 118.190386,89 107.502845,89 C96.8115572,89 87.4107422,94.5745803 82,103" id="路径"></path>
                <line x1="53" y1="156" x2="159" y2="156" id="直线-4" stroke-linecap="square"></line>
                <line x1="57" y1="49" x2="66" y2="58" id="直线-5" stroke-linecap="square"></line>
                <line x1="152" y1="49" x2="161" y2="58" id="直线-5备份-2" stroke-linecap="square"></line>
                <line x1="67" y1="48" x2="57" y2="58" id="直线-5备份" stroke-linecap="square"></line>
                <line x1="162" y1="48" x2="152" y2="58" id="直线-5备份-3" stroke-linecap="square"></line>
            </g>
        </g>
    </g>
</svg>