<?xml version="1.0" encoding="UTF-8"?>
<svg width="15px" height="15px" viewBox="0 0 15 15" version="1.1" xmlns="http://www.w3.org/2000/svg" xmlns:xlink="http://www.w3.org/1999/xlink">
    <!-- Generator: Sketch 63.1 (92452) - https://sketch.com -->
    <title>形状结合</title>
    <desc>Created with Sketch.</desc>
    <g id="页面-1" stroke="none" stroke-width="1" fill="none" fill-rule="evenodd">
        <g id="P3-展示" transform="translate(-1280.000000, -68.000000)" fill="#FFFFFF">
            <path d="M1283.56489,69.6364602 C1285.69446,68.4139086 1288.39638,68.6597168 1290.14457,70.4079009 C1291.6886,71.9519294 1292.06066,74.2399432 1291.28419,76.2205046 C1291.41336,76.2953888 1291.53665,76.3881226 1291.65032,76.4968393 L1293.89848,78.6469594 C1294.66553,79.3805645 1294.69265,80.5970895 1293.95904,81.3641439 C1293.93931,81.3847797 1293.91911,81.4049732 1293.89848,81.4247092 L1293.82862,81.491517 C1293.05541,82.2310143 1291.83714,82.2310143 1291.06393,81.491517 L1288.81577,79.3413969 C1288.76777,79.2954895 1288.72267,79.2476911 1288.68047,79.1982301 C1286.56032,80.3845827 1283.89033,80.1278865 1282.15746,78.3950104 C1280.40927,76.6468262 1280.16347,73.9449062 1281.38602,71.8153368 L1281.38602,71.8153368 L1285.39641,75.8251563 L1285.49062,75.9083449 C1285.88291,76.2133698 1286.45014,76.1856403 1286.81062,75.8251563 L1286.81062,75.8251563 L1287.57471,75.0610673 L1287.6579,74.96686 C1287.96293,74.5745688 1287.9352,74.0073377 1287.57471,73.6468537 L1287.57471,73.6468537 Z" id="形状结合"></path>
        </g>
    </g>
</svg>