<?xml version="1.0" encoding="UTF-8"?>
<svg width="281px" height="23px" viewBox="0 0 281 23" version="1.1" xmlns="http://www.w3.org/2000/svg" xmlns:xlink="http://www.w3.org/1999/xlink">
    <!-- Generator: Sketch 63.1 (92452) - https://sketch.com -->
    <title>形状结合</title>
    <desc>Created with Sketch.</desc>
    <g id="页面-1" stroke="none" stroke-width="1" fill="none" fill-rule="evenodd">
        <g id="P3-未配置" transform="translate(-226.000000, -63.000000)" fill="#FFFFFF" fill-rule="nonzero">
            <path d="M310.824,64.376 L310.824,83.48 C310.824,84.656 310.2,85.256 308.976,85.256 L308.976,85.256 L307.752,85.256 L307.368,83.816 C307.752,83.864 308.136,83.888 308.496,83.888 C309.024,83.888 309.288,83.552 309.288,82.928 L309.288,82.928 L309.288,77.288 L307.008,77.288 C306.96,80.696 306.576,83.456 305.88,85.592 L305.88,85.592 L304.632,84.488 C305.208,82.496 305.496,79.976 305.52,76.904 L305.52,76.904 L305.52,64.376 L310.824,64.376 Z M454.56,81.344 C457.2,82.136 459.624,83.096 461.808,84.2 L461.808,84.2 L460.944,85.568 C458.592,84.32 456.168,83.312 453.696,82.592 L453.696,82.592 Z M452.064,78.2 L453.672,78.344 C453.384,80.888 452.76,82.592 451.8,83.456 C450.744,84.536 448.344,85.232 444.6,85.52 L444.6,85.52 L443.952,84.056 C447.216,83.888 449.352,83.36 450.408,82.472 C451.368,81.632 451.92,80.216 452.064,78.2 L452.064,78.2 Z M403.368,63.224 L405.12,63.44 C404.808,65.456 404.424,67.328 403.992,69.104 L403.992,69.104 L415.224,69.104 L415.224,70.76 L403.536,70.76 C403.248,71.72 402.96,72.632 402.624,73.496 L402.624,73.496 L412.44,73.496 L412.44,74.984 C411.792,77.048 410.496,78.92 408.528,80.6 C410.472,81.752 412.848,82.808 415.632,83.768 L415.632,83.768 L414.744,85.376 C411.672,84.248 409.128,83.024 407.112,81.704 C405.144,83.096 402.696,84.344 399.792,85.472 L399.792,85.472 L398.88,83.864 C401.568,82.88 403.8,81.8 405.6,80.624 C403.728,79.184 402.408,77.624 401.616,75.944 C399.864,79.736 397.608,82.736 394.872,84.968 L394.872,84.968 L393.984,83.384 C397.488,80.312 400.056,76.112 401.736,70.76 L401.736,70.76 L395.784,70.76 L397.68,64.088 L399.384,64.376 L398.016,69.104 L402.216,69.104 C402.696,67.232 403.08,65.288 403.368,63.224 L403.368,63.224 Z M429.888,63.416 L429.888,64.976 C429.888,66.656 429.768,68.216 429.576,69.704 L429.576,69.704 L439.536,69.704 L439.536,71.384 L430.08,71.384 C431.76,76.808 435.072,80.984 439.992,83.912 L439.992,83.912 L438.912,85.304 C434.088,82.328 430.776,78.152 428.976,72.728 C427.488,78.56 424.176,82.808 419.064,85.472 L419.064,85.472 L417.984,84.032 C423.096,81.512 426.264,77.288 427.512,71.384 L427.512,71.384 L418.464,71.384 L418.464,69.704 L427.8,69.704 C427.992,68.312 428.088,66.872 428.112,65.36 L428.112,65.36 L428.112,63.416 L429.888,63.416 Z M304.272,64.376 L304.272,83.456 C304.272,84.656 303.672,85.256 302.472,85.256 L302.472,85.256 L301.272,85.256 L300.888,83.816 C301.272,83.864 301.656,83.888 301.992,83.888 C302.52,83.888 302.784,83.576 302.784,82.952 L302.784,82.952 L302.784,77.264 L300.432,77.264 C300.312,80.576 299.856,83.288 299.088,85.448 L299.088,85.448 L297.84,84.344 C298.56,82.136 298.92,79.304 298.944,75.872 L298.944,75.872 L298.944,64.376 L304.272,64.376 Z M237.864,75.344 L237.864,77.696 L247.416,77.696 L247.416,79.376 L237.864,79.376 L237.864,85.424 L236.088,85.424 L236.088,79.376 L226.632,79.376 L226.632,77.696 L236.088,77.696 L236.088,75.344 L237.864,75.344 Z M333.624,63.2 C334.08,63.944 334.512,64.784 334.896,65.696 L334.896,65.696 L343.68,65.696 L343.68,67.376 L325.896,67.376 L325.896,72.728 C325.8,78.008 324.984,82.232 323.424,85.4 L323.424,85.4 L322.008,84.128 C323.352,81.392 324.072,77.6 324.12,72.728 L324.12,72.728 L324.12,65.696 L333.024,65.696 C332.64,64.928 332.208,64.208 331.728,63.536 L331.728,63.536 Z M390.384,64.832 L390.384,66.512 L386.376,66.512 L386.376,72.872 L391.632,72.872 L391.632,74.528 L386.376,74.528 L386.376,85.16 L384.624,85.16 L384.624,74.528 L377.688,74.528 C377.472,77 377.016,79.04 376.296,80.672 C375.384,82.688 373.872,84.248 371.76,85.352 L371.76,85.352 L370.824,83.864 C372.768,82.76 374.136,81.296 374.904,79.472 C375.408,78.08 375.744,76.448 375.936,74.528 L375.936,74.528 L370.392,74.528 L370.392,72.872 L376.032,72.872 C376.032,72.56 376.056,72.272 376.056,72.032 L376.056,72.032 L376.056,66.512 L371.688,66.512 L371.688,64.832 L390.384,64.832 Z M260.568,63.392 L260.568,66.248 C260.544,67.304 260.496,68.336 260.424,69.32 L260.424,69.32 L270.312,69.32 C270.312,76.184 270,80.552 269.4,82.424 C268.776,84.296 267.648,85.232 266.04,85.232 C264.864,85.232 263.88,85.184 263.064,85.136 L263.064,85.136 L262.608,83.456 C263.832,83.552 264.936,83.6 265.944,83.6 C267.288,83.504 268.08,82.136 268.272,79.544 C268.464,76.928 268.56,74.072 268.56,71 L268.56,71 L260.256,71 C259.872,74.024 259.2,76.544 258.216,78.608 C256.8,81.464 254.472,83.696 251.208,85.304 L251.208,85.304 L250.224,83.768 C253.44,82.136 255.696,79.976 256.944,77.264 C257.688,75.488 258.216,73.4 258.528,71 L258.528,71 L251.064,71 L251.064,69.32 L258.72,69.32 C258.792,68.312 258.84,67.304 258.864,66.248 L258.864,66.248 L258.864,63.392 L260.568,63.392 Z M366.264,64.352 L366.264,82.328 C366.264,84.008 365.424,84.848 363.744,84.848 L363.744,84.848 L360.984,84.848 L360.528,83.144 C361.488,83.192 362.376,83.24 363.192,83.24 C364.056,83.24 364.512,82.736 364.512,81.728 L364.512,81.728 L364.512,77.552 L357.984,77.552 L357.984,84.584 L356.208,84.584 L356.208,77.552 L350.016,77.552 C349.752,80.624 348.864,83.168 347.328,85.184 L347.328,85.184 L346.008,84.008 C347.544,81.872 348.336,79.16 348.384,75.872 L348.384,75.872 L348.384,64.352 L366.264,64.352 Z M314.376,63.224 L315.984,63.44 C315.816,64.184 315.6,64.88 315.312,65.552 L315.312,65.552 L318.84,65.552 C318.696,69.56 318.432,71.936 318.096,72.656 C317.712,73.376 317.04,73.76 316.08,73.76 L316.08,73.76 L315.336,73.76 L314.88,72.368 C315.336,72.368 315.744,72.392 316.08,72.392 C316.464,72.392 316.728,72.176 316.872,71.792 C317.016,71.36 317.16,69.8 317.256,67.064 L317.256,67.064 L313.56,67.064 L313.56,75.128 L319.56,75.128 C319.536,80.24 319.248,83.216 318.72,84.032 C318.192,84.8 317.328,85.184 316.104,85.184 L316.104,85.184 L314.976,85.184 L314.496,83.648 C315.144,83.672 315.696,83.696 316.128,83.696 C316.776,83.696 317.232,83.432 317.52,82.952 C317.832,82.376 318,80.264 318,76.616 L318,76.616 L312.12,76.616 L312.12,65.552 L313.752,65.552 C314.04,64.784 314.232,64.016 314.376,63.224 L314.376,63.224 Z M285.96,74.288 L285.96,76.928 L288.84,76.928 L288.84,78.44 L285.96,78.44 L285.96,83.312 C287.112,83.048 288.096,82.76 288.936,82.472 L288.936,82.472 L289.224,83.984 C287.832,84.44 286.152,84.848 284.208,85.184 L284.208,85.184 L283.752,83.696 C284.184,83.504 284.424,83.168 284.424,82.64 L284.424,82.64 L284.424,74.288 L285.96,74.288 Z M291.384,74.288 L291.384,76.832 C292.824,76.544 294.096,76.136 295.248,75.56 L295.248,75.56 L295.8,77.024 C294.504,77.6 293.04,78.032 291.384,78.32 L291.384,78.32 L291.384,82.784 C291.384,83.264 291.6,83.528 292.056,83.528 L292.056,83.528 L293.304,83.528 C293.64,83.528 293.904,83.408 294.048,83.168 C294.24,82.856 294.36,81.944 294.432,80.432 L294.432,80.432 L295.92,80.912 C295.776,82.88 295.536,84.104 295.176,84.536 C294.816,84.896 294.288,85.088 293.592,85.088 L293.592,85.088 L291.552,85.088 C290.4,85.088 289.824,84.416 289.824,83.12 L289.824,83.12 L289.824,74.288 L291.384,74.288 Z M283.056,82.04 L283.056,83.648 C280.488,84.176 277.584,84.584 274.32,84.92 L274.32,84.92 L274.104,83.24 C277.512,82.928 280.488,82.52 283.056,82.04 L283.056,82.04 Z M340.248,70.04 L341.952,70.496 C340.944,75.056 339.72,79.136 338.232,82.688 L338.232,82.688 L343.296,82.688 L343.296,84.368 L326.352,84.368 L326.352,82.688 L336.36,82.688 C337.848,79.28 339.144,75.08 340.248,70.04 L340.248,70.04 Z M453.12,63.128 C453.408,63.608 453.72,64.136 454.008,64.76 L454.008,64.76 L462.744,64.76 L462.744,68.648 L461.064,68.648 L461.064,66.224 L456.6,66.224 L456.6,67.568 L460.176,67.568 L460.176,68.888 L456.6,68.888 L456.6,70.328 L459.72,70.328 L459.72,71.6 L456.6,71.6 L456.6,73.04 L463.2,73.04 L463.2,74.432 L457.848,74.432 C459.168,75.488 461.136,76.304 463.728,76.928 L463.728,76.928 L463.032,78.392 C461.736,77.984 460.584,77.528 459.6,77.048 L459.6,77.048 L459.6,81.656 L457.92,81.656 L457.92,77.432 L448.32,77.432 L448.32,81.656 L446.64,81.656 L446.64,76.904 C445.584,77.456 444.408,77.96 443.088,78.44 L443.088,78.44 L442.2,77 C444.792,76.304 446.76,75.44 448.056,74.432 L448.056,74.432 L442.848,74.432 L442.848,73.04 L449.376,73.04 L449.376,71.6 L446.304,71.6 L446.304,70.328 L449.376,70.328 L449.376,68.888 L445.824,68.888 L445.824,67.568 L449.376,67.568 L449.376,66.224 L444.936,66.224 L444.936,68.648 L443.256,68.648 L443.256,64.76 L452.208,64.76 C451.92,64.28 451.608,63.824 451.296,63.44 L451.296,63.44 Z M316.776,79.184 L316.776,80.696 L311.64,80.696 L311.64,79.184 L316.776,79.184 Z M328.968,71.216 C329.928,73.76 330.792,76.712 331.56,80.024 L331.56,80.024 L329.928,80.432 C329.28,77.408 328.464,74.48 327.456,71.696 L327.456,71.696 Z M277.248,63.248 L278.832,63.752 C278.664,64.208 278.496,64.64 278.304,65.072 L278.304,65.072 L282.576,65.072 L282.576,66.248 C281.952,67.592 281.304,68.72 280.68,69.656 L280.68,69.656 L282.912,69.656 L282.912,80.36 L275.184,80.36 L275.184,69.968 C274.872,70.304 274.56,70.64 274.224,70.952 L274.224,70.952 L273.816,69.152 C275.352,67.616 276.504,65.648 277.248,63.248 L277.248,63.248 Z M261.864,74.12 C263.592,76.016 264.912,77.672 265.848,79.064 L265.848,79.064 L264.336,80.12 C263.376,78.584 262.104,76.856 260.472,74.984 L260.472,74.984 Z M410.688,75.08 L402.912,75.08 C403.728,76.712 405.096,78.224 407.016,79.616 C408.792,78.224 410.016,76.712 410.688,75.08 L410.688,75.08 Z M333.6,69.512 C334.416,72.152 335.16,75.2 335.832,78.608 L335.832,78.608 L334.176,78.992 C333.648,75.872 332.952,72.872 332.088,69.992 L332.088,69.992 Z M281.472,75.488 L279.672,75.488 L279.672,78.944 L281.472,78.944 L281.472,75.488 Z M278.376,75.488 L276.624,75.488 L276.624,78.944 L278.376,78.944 L278.376,75.488 Z M502.6,66.808 C503.79,66.808 504.686,67.326 505.302,68.39 C505.834,69.286 506.1,70.49 506.1,72.002 C506.1,73.514 505.834,74.718 505.302,75.614 C504.686,76.664 503.79,77.196 502.6,77.196 C501.396,77.196 500.5,76.664 499.898,75.614 C499.366,74.718 499.1,73.514 499.1,72.002 C499.1,70.49 499.366,69.286 499.898,68.39 C500.5,67.326 501.396,66.808 502.6,66.808 Z M485.8,66.808 C486.99,66.808 487.886,67.326 488.502,68.39 C489.034,69.286 489.3,70.49 489.3,72.002 C489.3,73.514 489.034,74.718 488.502,75.614 C487.886,76.664 486.99,77.196 485.8,77.196 C484.596,77.196 483.7,76.664 483.098,75.614 C482.566,74.718 482.3,73.514 482.3,72.002 C482.3,70.49 482.566,69.286 483.098,68.39 C483.7,67.326 484.596,66.808 485.8,66.808 Z M494.34,66.808 C495.264,66.808 496.02,67.074 496.622,67.606 C497.21,68.138 497.518,68.852 497.518,69.72 C497.518,70.588 497.182,71.372 496.538,72.072 C496.188,72.436 495.502,72.982 494.466,73.682 C493.192,74.536 492.464,75.306 492.282,75.978 L492.282,75.978 L497.532,75.978 L497.532,77 L490.868,77 C490.868,76.09 491.19,75.264 491.862,74.522 C492.254,74.074 492.968,73.472 494.032,72.744 C494.816,72.184 495.334,71.778 495.6,71.498 C496.104,70.952 496.37,70.35 496.37,69.706 C496.37,69.09 496.188,68.628 495.824,68.292 C495.46,67.956 494.942,67.788 494.298,67.788 C493.612,67.788 493.08,68.012 492.716,68.488 C492.324,68.936 492.114,69.608 492.1,70.49 L492.1,70.49 L490.952,70.49 C490.952,69.37 491.274,68.474 491.89,67.816 C492.506,67.144 493.332,66.808 494.34,66.808 Z M477.54,66.808 C478.464,66.808 479.22,67.074 479.822,67.606 C480.41,68.138 480.718,68.852 480.718,69.72 C480.718,70.588 480.382,71.372 479.738,72.072 C479.388,72.436 478.702,72.982 477.666,73.682 C476.392,74.536 475.664,75.306 475.482,75.978 L475.482,75.978 L480.732,75.978 L480.732,77 L474.068,77 C474.068,76.09 474.39,75.264 475.062,74.522 C475.454,74.074 476.168,73.472 477.232,72.744 C478.016,72.184 478.534,71.778 478.8,71.498 C479.304,70.952 479.57,70.35 479.57,69.706 C479.57,69.09 479.388,68.628 479.024,68.292 C478.66,67.956 478.142,67.788 477.498,67.788 C476.812,67.788 476.28,68.012 475.916,68.488 C475.524,68.936 475.314,69.608 475.3,70.49 L475.3,70.49 L474.152,70.49 C474.152,69.37 474.474,68.474 475.09,67.816 C475.706,67.144 476.532,66.808 477.54,66.808 Z M502.6,67.788 C501.704,67.788 501.06,68.264 500.668,69.23 C500.388,69.902 500.248,70.826 500.248,72.002 C500.248,73.164 500.388,74.088 500.668,74.774 C501.06,75.726 501.704,76.216 502.6,76.216 C503.496,76.216 504.14,75.726 504.532,74.774 C504.812,74.088 504.966,73.164 504.966,72.002 C504.966,70.826 504.812,69.902 504.532,69.23 C504.14,68.264 503.496,67.788 502.6,67.788 Z M485.8,67.788 C484.904,67.788 484.26,68.264 483.868,69.23 C483.588,69.902 483.448,70.826 483.448,72.002 C483.448,73.164 483.588,74.088 483.868,74.774 C484.26,75.726 484.904,76.216 485.8,76.216 C486.696,76.216 487.34,75.726 487.732,74.774 C488.012,74.088 488.166,73.164 488.166,72.002 C488.166,70.826 488.012,69.902 487.732,69.23 C487.34,68.264 486.696,67.788 485.8,67.788 Z M456.072,74.432 L449.856,74.432 C449.328,75.008 448.728,75.536 448.032,76.04 L448.032,76.04 L457.896,76.04 C457.152,75.512 456.552,74.984 456.072,74.432 L456.072,74.432 Z M364.512,71.768 L357.984,71.768 L357.984,75.968 L364.512,75.968 L364.512,71.768 Z M356.208,71.768 L350.112,71.768 L350.112,75.968 L356.208,75.968 L356.208,71.768 Z M232.872,63.344 L234.336,64.016 C233.616,65.384 232.728,66.68 231.624,67.88 L231.624,67.88 L231.624,75.824 L229.944,75.824 L229.944,69.512 C229.008,70.328 227.976,71.12 226.848,71.864 L226.848,71.864 L226.296,70.088 C229.296,68.12 231.48,65.888 232.872,63.344 L232.872,63.344 Z M309.288,71.408 L307.008,71.408 L307.008,75.8 L309.288,75.8 L309.288,71.408 Z M302.784,71.408 L300.456,71.408 L300.456,75.776 L302.784,75.776 L302.784,71.408 Z M239.328,63.728 L239.328,68.456 C241.776,67.256 243.792,65.912 245.376,64.472 L245.376,64.472 L246.552,65.672 C244.488,67.424 242.088,68.96 239.328,70.28 L239.328,70.28 L239.328,72.56 C239.328,73.112 239.664,73.4 240.336,73.4 L240.336,73.4 L243.936,73.4 C244.56,73.4 245.016,73.28 245.28,73.04 C245.616,72.704 245.856,71.744 245.976,70.184 L245.976,70.184 L247.608,70.712 C247.416,72.728 247.032,73.976 246.504,74.408 C246.024,74.792 245.256,74.984 244.248,74.984 L244.248,74.984 L239.832,74.984 C238.392,74.984 237.672,74.288 237.672,72.896 L237.672,72.896 L237.672,71.024 C236.52,71.504 235.344,71.936 234.144,72.368 L234.144,72.368 L233.184,70.928 C234.816,70.4 236.304,69.824 237.672,69.224 L237.672,69.224 L237.672,63.728 L239.328,63.728 Z M278.376,71.096 L276.624,71.096 L276.624,74.264 L278.376,74.264 L278.376,71.096 Z M281.472,71.096 L279.672,71.096 L279.672,74.264 L281.472,74.264 L281.472,71.096 Z M294.36,64.28 L294.36,73.208 L284.376,73.208 L284.376,64.28 L294.36,64.28 Z M454.92,71.6 L451.08,71.6 L451.08,73.04 L454.92,73.04 L454.92,71.6 Z M384.624,66.512 L377.832,66.512 L377.832,72.032 C377.832,72.32 377.808,72.608 377.808,72.872 L377.808,72.872 L384.624,72.872 L384.624,66.512 Z M292.8,69.464 L285.96,69.464 L285.96,71.792 L292.8,71.792 L292.8,69.464 Z M314.832,67.952 C315.552,68.96 316.128,69.824 316.512,70.544 L316.512,70.544 L315.552,71.24 C315.12,70.424 314.568,69.536 313.848,68.576 L313.848,68.576 Z M454.92,68.888 L451.08,68.888 L451.08,70.328 L454.92,70.328 L454.92,68.888 Z M356.208,66.032 L350.112,66.032 L350.112,70.16 L356.208,70.16 L356.208,66.032 Z M364.512,66.032 L357.984,66.032 L357.984,70.16 L364.512,70.16 L364.512,66.032 Z M302.784,65.84 L300.456,65.84 L300.456,69.92 L302.784,69.92 L302.784,65.84 Z M309.288,65.84 L307.008,65.84 L307.008,69.92 L309.288,69.92 L309.288,65.84 Z M280.92,66.464 L277.632,66.464 C276.984,67.664 276.264,68.72 275.448,69.656 L275.448,69.656 L278.832,69.656 C279.552,68.744 280.248,67.688 280.92,66.464 L280.92,66.464 Z M253.416,63.992 C254.808,65.432 255.888,66.704 256.656,67.808 L256.656,67.808 L255.312,68.744 C254.472,67.544 253.392,66.272 252.096,64.928 L252.096,64.928 Z M409.152,63.416 C410.88,64.736 412.296,66.056 413.448,67.376 L413.448,67.376 L412.224,68.6 C411.216,67.328 409.8,65.984 408,64.544 L408,64.544 Z M292.8,65.696 L285.96,65.696 L285.96,68.072 L292.8,68.072 L292.8,65.696 Z M454.92,66.224 L451.08,66.224 L451.08,67.568 L454.92,67.568 L454.92,66.224 Z" id="形状结合"></path>
        </g>
    </g>
</svg>