<?xml version="1.0" encoding="UTF-8"?>
<svg width="285px" height="23px" viewBox="0 0 285 23" version="1.1" xmlns="http://www.w3.org/2000/svg" xmlns:xlink="http://www.w3.org/1999/xlink">
    <!-- Generator: Sketch 63.1 (92452) - https://sketch.com -->
    <title>电子商务用户行为分析系统</title>
    <desc>Created with Sketch.</desc>
    <g id="页面-1" stroke="none" stroke-width="1" fill="none" fill-rule="evenodd">
        <g id="P3-未配置" transform="translate(-557.000000, -62.000000)" fill="#FFFFFF" fill-rule="nonzero">
            <path d="M568.242609,83.87575 L568.464,83.872 L574.416,83.872 C576.56,83.936 577.6,82.944 577.536,80.896 L577.536,80.896 L577.536,79.792 L575.568,79.792 L575.568,80.608 C575.616,81.728 575.024,82.272 573.792,82.24 L573.792,82.24 L569.4,82.24 C568.056,82.304 567.416,81.6 567.48,80.128 L567.48,80.128 L567.48,78.424 L571.944,78.424 C574.328,78.472 575.496,77.28 575.448,74.848 L575.448,65.104 L567.48,65.104 L567.48,62.704 L564.96,62.704 L564.96,65.104 L557.064,65.104 L557.064,78.424 L564.96,78.424 L564.96,80.272 C564.896,82.752 566.064,83.952 568.464,83.872 L568.242609,83.87575 Z M564.96,70.84 L559.44,70.84 L559.44,66.712 L564.96,66.712 L564.96,70.84 Z M573.024,70.84 L567.48,70.84 L567.48,66.712 L573.024,66.712 L573.024,70.84 Z M571.46904,76.7923 L571.296,76.792 L567.48,76.792 L567.48,72.448 L573.024,72.448 L573.02424,75.2587 C572.99688,76.3113 572.4208,76.8224 571.296,76.792 L571.46904,76.7923 Z M564.96,76.792 L559.44,76.792 L559.44,72.448 L564.96,72.448 L564.96,76.792 Z M589.104,84.232 C591.568,84.264 592.784,83.04 592.752,80.56 L592.752,80.56 L592.752,74.272 L601.896,74.272 L601.896,72.52 L592.752,72.52 L592.752,70.624 C595.328,69.408 597.728,67.752 599.952,65.656 L599.952,65.656 L599.952,63.928 L582.12,63.928 L582.12,65.656 L596.04,65.656 C594.264,67.432 592.272,68.864 590.064,69.952 L590.064,69.952 L590.064,72.52 L580.08,72.52 L580.08,74.272 L590.064,74.272 L590.064218,80.8081633 C590.036644,81.9531973 589.428571,82.5104762 588.24,82.48 L588.24,82.48 L586.464,82.48 L586.464,84.232 L589.104,84.232 Z M625.776,65.824 L625.776,64.192 L616.512,64.192 L616.512,62.728 L613.656,62.728 L613.656,64.192 L604.224,64.192 L604.224,65.824 L625.776,65.824 Z M607.896,84.448 L607.896,70.672 L621.936,70.672 L621.936,81.136 C621.952,82.064 621.488,82.52 620.544,82.504 L620.544,82.504 L619.344,82.504 L619.344,84.088 L621.408,84.088 C623.44,84.184 624.416,83.136 624.336,80.944 L624.336,80.944 L624.336,69.088 L619.848,69.088 C620.264,68.384 620.568,67.496 620.76,66.424 L620.76,66.424 L618.312,66.424 C618.168,67.416 617.896,68.304 617.496,69.088 L617.496,69.088 L612.48,69.088 C612.064,68.304 611.792,67.416 611.664,66.424 L611.664,66.424 L609.24,66.424 C609.416,67.48 609.712,68.368 610.128,69.088 L610.128,69.088 L605.52,69.088 L605.52,84.448 L607.896,84.448 Z M616.632,81.424 C618.504,81.488 619.408,80.56 619.344,78.64 L619.344,78.64 L619.344,75.256 C619.984,75.56 620.72,75.832 621.552,76.072 L621.552,76.072 L621.552,74.632 C619.856,73.88 618.664,72.768 617.976,71.296 L617.976,71.296 L615.672,71.296 C616.456,73.088 617.616,74.376 619.152,75.16 L619.152,75.16 L610.68,75.16 C612.216,74.408 613.376,73.12 614.16,71.296 L614.16,71.296 L611.856,71.296 C611.152,72.784 609.96,73.896 608.28,74.632 L608.28,74.632 L608.28,76.072 C609.272,75.784 610.048,75.496 610.608,75.208 L610.608,75.208 L610.608,81.424 L616.632,81.424 Z M616.163958,79.9394879 L616.008,79.936 L612.672,79.936 L612.672,76.648 L617.304,76.648 L617.304,78.64 C617.352,79.552 616.92,79.984 616.008,79.936 L616.163958,79.9394879 Z M628.152,73.936 C632.952,73.344 636.544,72.632 638.928,71.8 C641.376,72.648 645.008,73.344 649.824,73.888 L649.824,73.888 L649.824,72.448 C646.336,71.968 643.56,71.4 641.496,70.744 C643.656,69.688 645.68,68.112 647.568,66.016 L647.568,66.016 L647.568,64.312 L636.216,64.312 C636.6,63.832 636.968,63.296 637.32,62.704 L637.32,62.704 L634.536,62.704 C633.432,64.704 631.424,66.16 628.512,67.072 L628.512,67.072 L628.512,68.344 C629.872,68.072 631,67.768 631.896,67.432 C633.416,68.888 634.92,69.984 636.408,70.72 C634.248,71.44 631.496,72.04 628.152,72.52 L628.152,72.52 L628.152,73.936 Z M638.904,69.736 C637.416,69.064 635.96,68.16 634.536,67.024 L634.536,67.024 L632.856,67.024 C633.496,66.72 634.088,66.352 634.632,65.92 L634.632,65.92 L644.448,65.92 C642.72,67.568 640.872,68.84 638.904,69.736 Z M628.68,84.592 C634.776,83.344 637.968,80.8 638.256,76.96 L638.256,76.96 L644.784,76.96 L644.784,80.872 C644.816,81.928 644.312,82.44 643.272,82.408 L643.272,82.408 L641.112,82.408 L641.112,84.064 L644.232,84.064 C646.344,84.128 647.368,83.032 647.304,80.776 L647.304,80.776 L647.304,75.328 L638.424,75.328 L638.424,73.312 L635.88,73.312 L635.88,75.328 L629.52,75.328 L629.52,76.96 L635.736,76.96 C635.448,79.744 633.096,81.784 628.68,83.08 L628.68,83.08 L628.68,84.592 Z M652.248,84.616 C655.304,82.936 656.8,80.344 656.736,76.84 L656.736,76.84 L662.256,76.84 L662.256,84.088 L664.752,84.088 L664.752,76.84 L670.272,76.84 L670.272581,81.276263 C670.248664,82.124872 669.792471,82.5341176 668.904,82.504 L668.904,82.504 L667.68,82.504 L667.68,84.208 L669.624,84.208 C671.768,84.256 672.816,83.216 672.768,81.088 L672.768,81.088 L672.768,63.856 L654.264,63.856 L654.264,76.624 C654.264,78.176 654.128,79.376 653.856,80.224 C653.584,81.072 653.048,81.944 652.248,82.84 L652.248,82.84 L652.248,84.616 Z M662.256,69.52 L656.76,69.52 L656.76,65.56 L662.256,65.56 L662.256,69.52 Z M670.272,69.52 L664.752,69.52 L664.752,65.56 L670.272,65.56 L670.272,69.52 Z M662.256,75.232 L656.76,75.232 L656.76,71.152 L662.256,71.152 L662.256,75.232 Z M670.272,75.232 L664.752,75.232 L664.752,71.152 L670.272,71.152 L670.272,75.232 Z M676.296,84.496 C679.672,82.96 681.24,80.36 681,76.696 L681,76.696 L681,74.872 L693.12,74.872 C695.424,74.92 696.552,73.792 696.504,71.488 L696.504,65.128 L688.896,65.128 L688.896,62.776 L686.04,62.776 L686.04,65.128 L678.36,65.128 L678.36,77.248 C678.36,78.688 678.216,79.784 677.928,80.536 C677.656,81.304 677.112,82.064 676.296,82.816 L676.296,82.816 L676.296,84.496 Z M692.521596,73.1681994 L692.352,73.168 L681,73.168 L681,66.832 L693.96,66.832 L693.960332,71.6865152 C693.934006,72.7044875 693.397895,73.1983158 692.352,73.168 L692.521596,73.1681994 Z M700.296,69.616 C704.264,68.592 706.736,66.32 707.712,62.8 L707.712,62.8 L705.168,62.8 C704.48,65.12 702.856,66.904 700.296,68.152 L700.296,68.152 L700.296,69.616 Z M720.888,65.872 L720.888,64.168 L709.536,64.168 L709.536,65.872 L720.888,65.872 Z M705.504,84.52 L705.504,72.616 C706.416,71.656 707.152,70.328 707.712,68.632 L707.712,68.632 L705.168,68.632 C704.4,70.984 702.768,72.776 700.272,74.008 L700.272,74.008 L700.272,75.472 C701.376,75.136 702.328,74.768 703.128,74.368 L703.128,74.368 L703.128,84.52 L705.504,84.52 Z M715.344,84.136 C717.296,84.168 718.264,83.144 718.248,81.064 L718.248,81.064 L718.248,71.752 L721.944,71.752 L721.944,70.048 L708.432,70.048 L708.432,71.752 L715.68,71.752 L715.68,81.088 C715.696,82.032 715.24,82.496 714.312,82.48 L714.312,82.48 L712.32,82.48 L712.32,84.136 L715.344,84.136 Z M724.656,84.64 C731.552,80.832 735.056,75.456 735.168,68.512 L735.168,68.512 L742.128,68.512 L742.128,80.464 C742.208,81.728 741.624,82.32 740.376,82.24 L740.376,82.24 L738.264,82.24 L738.264,83.968 L741.192,83.968 C743.624,84.048 744.8,82.856 744.72,80.392 L744.72,80.392 L744.72,66.784 L735.264,66.784 L735.264,66.784 L735.264,65.992 C735.28,65.608 735.288,65.32 735.288,65.128 L735.288,65.128 L735.288,62.656 L732.624,62.656 L732.624,65.704 C732.624,66.088 732.616,66.448 732.6,66.784 L732.6,66.784 L730.296,66.784 C729.992,65.504 729.504,64.264 728.832,63.064 L728.832,63.064 L726.744,63.064 C727.32,64.264 727.776,65.504 728.112,66.784 L728.112,66.784 L724.92,66.784 L724.92,68.512 L732.552,68.512 C732.584,73.968 729.952,78.744 724.656,82.84 L724.656,82.84 L724.656,84.64 Z M739.44,78.112 C739.072,76.112 738.48,74.248 737.664,72.52 L737.664,72.52 L735.528,72.52 C736.296,74.344 736.824,76.208 737.112,78.112 L737.112,78.112 L739.44,78.112 Z M748.248,73.192 C753.336,71.384 756.384,68.032 757.392,63.136 L757.392,63.136 L754.8,63.136 C753.984,67.008 751.8,69.832 748.248,71.608 L748.248,71.608 L748.248,73.192 Z M769.752,73.192 L769.752,71.608 C766.184,69.832 763.992,67.008 763.176,63.136 L763.176,63.136 L760.584,63.136 C761.592,68.048 764.648,71.4 769.752,73.192 L769.752,73.192 Z M749.064,84.592 C754.6,82.576 757.424,78.864 757.536,73.456 L757.536,73.456 L763.632,73.456 L763.632,80.488 C763.68,81.672 763.136,82.24 762,82.192 L762,82.192 L760.248,82.192 L760.248,83.896 L762.864,83.896 C765.136,83.976 766.232,82.872 766.152,80.584 L766.152,80.584 L766.152,71.752 L751.44,71.752 L751.44,73.456 L755.016,73.456 C754.968,77.776 752.984,80.936 749.064,82.936 L749.064,82.936 L749.064,84.592 Z M777.552,84.472 L777.552,72.736 C778.176,74.16 779.08,75.64 780.264,77.176 L780.264,77.176 L780.264,74.704 C779.08,72.72 778.192,70.424 777.6,67.816 L777.6,67.816 L780.36,67.816 L780.36,66.184 L777.552,66.184 L777.552,62.776 L775.176,62.776 L775.176,66.184 L772.344,66.184 L772.344,67.816 L775.032,67.816 C774.36,71.24 773.352,74.36 772.008,77.176 L772.008,77.176 L772.008,79.768 C773.432,77.656 774.488,75.664 775.176,73.792 L775.176,73.792 L775.176,84.472 L777.552,84.472 Z M779.664,84.352 C782.672,82.96 784.096,80.208 783.936,76.096 L783.936,76.096 L783.936,71.872 L788.016,71.872 L788.016,84.304 L790.44,84.304 L790.44,71.872 L793.992,71.872 L793.992,70.264 L783.936,70.264 L783.936,65.632 L789.288,65.632 C790.744,65.664 792.072,65.44 793.272,64.96 L793.272,64.96 L793.272,63.208 C791.64,63.768 790.128,64.032 788.736,64 L788.736,64 L781.44,64 L781.44,76.648 C781.504,79.464 780.912,81.48 779.664,82.696 L779.664,82.696 L779.664,84.352 Z M805.56,84.232 C807.464,84.264 808.408,83.336 808.392,81.448 L808.392,81.448 L808.392,76.312 C810.104,76.248 811.968,76.152 813.984,76.024 C814.048,76.216 814.136,76.504 814.248,76.888 C814.28,77.064 814.312,77.2 814.344,77.296 L814.344,77.296 L816.672,77.296 C816.208,75.44 815.368,73.56 814.152,71.656 L814.152,71.656 L812.016,71.656 C812.624,72.728 813.088,73.648 813.408,74.416 C810.176,74.64 806.416,74.752 802.128,74.752 C806.784,73.088 811.264,70.72 815.568,67.648 L815.568,67.648 L811.848,67.648 C810.968,68.224 810.056,68.792 809.112,69.352 C807.208,69.48 804.936,69.544 802.296,69.544 C804.392,68.712 806.528,67.496 808.704,65.896 L808.704,65.896 L810.264,65.896 C811.528,65.896 812.624,65.84 813.552,65.728 C814.48,65.632 815.608,65.44 816.936,65.152 L816.936,65.152 L816.936,63.376 C814.584,63.92 812.152,64.176 809.64,64.144 L809.64,64.144 L797.28,64.144 L797.28,65.896 L805.08,65.896 C803.032,67.368 800.8,68.576 798.384,69.52 L798.384,69.52 L798.384,71.176 C801.424,71.176 804.04,71.104 806.232,70.96 C803.384,72.448 800.496,73.704 797.568,74.728 L797.568,74.728 L797.568,76.456 C800.496,76.472 803.272,76.456 805.896,76.408 L805.896,76.408 L805.896664,81.4360415 C805.873633,82.2421315 805.425412,82.6301176 804.552,82.6 L804.552,82.6 L803.424,82.6 L803.424,84.232 L805.56,84.232 Z M817.608,83.44 L817.608,81.976 C815.224,81.016 813.704,79.552 813.048,77.584 L813.048,77.584 L810.6,77.584 C811.432,80.592 813.768,82.544 817.608,83.44 L817.608,83.44 Z M796.368,83.44 C800.208,82.56 802.544,80.608 803.376,77.584 L803.376,77.584 L800.928,77.584 C800.272,79.552 798.752,81.016 796.368,81.976 L796.368,81.976 L796.368,83.44 Z M820.656,77.608 C822.08,77.624 823.288,77.584 824.28,77.488 C825.272,77.408 826.304,77.256 827.376,77.032 L827.376,77.032 L827.376,75.424 C825.92,75.728 824.384,75.872 822.768,75.856 C825.072,73.488 826.824,70.664 828.024,67.384 L828.024,67.384 L825.816,67.384 C825.48,68.296 825.152,69.096 824.832,69.784 C823.984,69.912 823.072,69.96 822.096,69.928 C823.712,67.896 824.92,65.528 825.72,62.824 L825.72,62.824 L823.416,62.824 C822.824,65.384 821.752,67.752 820.2,69.928 L820.2,69.928 L820.2,71.608 C821.768,71.64 823.008,71.608 823.92,71.512 C823.136,72.856 822.048,74.296 820.656,75.832 L820.656,75.832 L820.656,77.608 Z M826.68,84.496 C831.112,82.832 833.184,79.808 832.896,75.424 L832.896,75.424 L832.896,73.48 C833.632,73.464 834.344,73.432 835.032,73.384 L835.032,73.384 L835.032,81.088 C834.984,83.008 835.96,83.944 837.96,83.896 L837.96,83.896 L839.386337,83.8957695 C841.106261,83.8609602 841.950815,82.973037 841.92,81.232 L841.92,81.232 L841.92,80.008 L840.288,80.008 L840.288,80.776 C840.336,81.816 839.84,82.312 838.8,82.264 C837.712,82.328 837.2,81.84 837.264,80.8 L837.264,80.8 L837.264,73.192 C837.856,73.144 838.44,73.08 839.016,73 C839.16,73.464 839.248,73.768 839.28,73.912 C839.344,74.136 839.392,74.312 839.424,74.44 L839.424,74.44 L841.56,74.44 C840.984,72.344 840.152,70.368 839.064,68.512 L839.064,68.512 L837.096,68.512 C837.752,69.776 838.208,70.752 838.464,71.44 C837.216,71.568 836,71.656 834.816,71.704 C833.648,71.752 832.192,71.768 830.448,71.752 C832,70.376 833.4,68.608 834.648,66.448 L834.648,66.448 L841.608,66.448 L841.608,64.816 L835.848,64.816 L835.848,62.824 L833.328,62.824 L833.328,64.816 L827.52,64.816 L827.52,66.448 L831.936,66.448 C831.008,68.336 829.696,70.104 828,71.752 L828,71.752 L828,73.528 L830.664,73.528 L830.664,75.352 C830.68,77.288 830.4,78.784 829.824,79.84 C829.28,80.896 828.232,81.912 826.68,82.888 L826.68,82.888 L826.68,84.496 Z M820.104,82.048 C822.92,82.064 825.448,81.704 827.688,80.968 L827.688,80.968 L827.688,79.456 C825.352,80.016 822.824,80.264 820.104,80.2 L820.104,80.2 L820.104,82.048 Z" id="电子商务用户行为分析系统"></path>
        </g>
    </g>
</svg>